<svg xmlns="http://www.w3.org/2000/svg" xmlns:xlink="http://www.w3.org/1999/xlink" version="1.1" class="marks" width="661" height="432" viewBox="0 0 661 432"><rect width="661" height="432" fill="white"/><g fill="none" stroke-miterlimit="10" transform="translate(76,75)"><g class="mark-group role-frame root" role="graphics-object" aria-roledescription="group mark container"><g transform="translate(0,0)"><path class="background" aria-hidden="true" d="M0,0h0v0h0Z"/><g><g class="mark-group role-column-title column-title" role="graphics-object" aria-roledescription="group mark container"><g transform="translate(255,-32)"><path class="background" aria-hidden="true" d="M0,0h0v0h0Z"/><g><g class="mark-group role-title"><g transform="translate(0,-21)"><path class="background" aria-hidden="true" d="M0,0h0v0h0Z" pointer-events="none"/><g><g class="mark-text role-title-text" role="graphics-symbol" aria-roledescription="title" aria-label="Title text 'Language'" pointer-events="none"><text text-anchor="middle" transform="translate(0,9)" font-family="sans-serif" font-size="11px" font-weight="bold" fill="#000" opacity="1">Language</text></g></g><path class="foreground" aria-hidden="true" d="" pointer-events="none" display="none"/></g></g></g><path class="foreground" aria-hidden="true" d="" display="none"/></g></g><g class="mark-group role-row-header row_header" role="graphics-object" aria-roledescription="group mark container"><g transform="translate(-23,0)"><path class="background" aria-hidden="true" d="M0,0h0v300h0Z"/><g><g class="mark-group role-axis" role="graphics-symbol" aria-roledescription="axis" aria-label="Y-axis titled 'Count' for a linear scale with values from 0 to 2,600"><g transform="translate(0.5,0.5)"><path class="background" aria-hidden="true" d="M0,0h0v0h0Z" pointer-events="none"/><g><g class="mark-rule role-axis-tick" pointer-events="none"><line transform="translate(0,300)" x2="-5" y2="0" stroke="#888" stroke-width="1" opacity="1"/><line transform="translate(0,242)" x2="-5" y2="0" stroke="#888" stroke-width="1" opacity="1"/><line transform="translate(0,185)" x2="-5" y2="0" stroke="#888" stroke-width="1" opacity="1"/><line transform="translate(0,127)" x2="-5" y2="0" stroke="#888" stroke-width="1" opacity="1"/><line transform="translate(0,69)" x2="-5" y2="0" stroke="#888" stroke-width="1" opacity="1"/><line transform="translate(0,12)" x2="-5" y2="0" stroke="#888" stroke-width="1" opacity="1"/></g><g class="mark-text role-axis-label" pointer-events="none"><text text-anchor="end" transform="translate(-7,303)" font-family="sans-serif" font-size="10px" fill="#000" opacity="1">0</text><text text-anchor="end" transform="translate(-7,245.30769230769232)" font-family="sans-serif" font-size="10px" fill="#000" opacity="1">500</text><text text-anchor="end" transform="translate(-7,187.6153846153846)" font-family="sans-serif" font-size="10px" fill="#000" opacity="1">1,000</text><text text-anchor="end" transform="translate(-7,129.92307692307693)" font-family="sans-serif" font-size="10px" fill="#000" opacity="1">1,500</text><text text-anchor="end" transform="translate(-7,72.23076923076921)" font-family="sans-serif" font-size="10px" fill="#000" opacity="1">2,000</text><text text-anchor="end" transform="translate(-7,14.538461538461531)" font-family="sans-serif" font-size="10px" fill="#000" opacity="1">2,500</text></g><g class="mark-rule role-axis-domain" pointer-events="none"><line transform="translate(0,300)" x2="0" y2="-300" stroke="#888" stroke-width="1" opacity="1"/></g><g class="mark-text role-axis-title" pointer-events="none"><text text-anchor="middle" transform="translate(-36.0244140625,150) rotate(-90) translate(0,-2)" font-family="sans-serif" font-size="11px" font-weight="bold" fill="#000" opacity="1">Count</text></g></g><path class="foreground" aria-hidden="true" d="" pointer-events="none" display="none"/></g></g></g><path class="foreground" aria-hidden="true" d="" display="none"/></g></g><g class="mark-group role-column-footer column_footer" role="graphics-object" aria-roledescription="group mark container"><g transform="translate(0,300)"><path class="background" aria-hidden="true" d="M0,0h120v0h-120Z"/><g><g class="mark-group role-axis" role="graphics-symbol" aria-roledescription="axis" aria-label="X-axis titled 'Label' for a discrete scale with 2 values: 0, 1"><g transform="translate(0.5,0.5)"><path class="background" aria-hidden="true" d="M0,0h0v0h0Z" pointer-events="none"/><g><g class="mark-rule role-axis-tick" pointer-events="none"><line transform="translate(30,0)" x2="0" y2="5" stroke="#888" stroke-width="1" opacity="1"/><line transform="translate(90,0)" x2="0" y2="5" stroke="#888" stroke-width="1" opacity="1"/></g><g class="mark-text role-axis-label" pointer-events="none"><text text-anchor="middle" transform="translate(29.5,15)" font-family="sans-serif" font-size="10px" fill="#000" opacity="1">0</text><text text-anchor="middle" transform="translate(89.5,15)" font-family="sans-serif" font-size="10px" fill="#000" opacity="1">1</text></g><g class="mark-rule role-axis-domain" pointer-events="none"><line transform="translate(0,0)" x2="120" y2="0" stroke="#888" stroke-width="1" opacity="1"/></g><g class="mark-text role-axis-title" pointer-events="none"><text text-anchor="middle" transform="translate(60,30)" font-family="sans-serif" font-size="11px" font-weight="bold" fill="#000" opacity="1">Label</text></g></g><path class="foreground" aria-hidden="true" d="" pointer-events="none" display="none"/></g></g><g class="mark-group role-title"><g transform="translate(60,42)"><path class="background" aria-hidden="true" d="M0,0h0v0h0Z" pointer-events="none"/><g><g class="mark-text role-title-text" role="graphics-symbol" aria-roledescription="title" aria-label="Title text 'en'" pointer-events="none"><text text-anchor="middle" transform="translate(0,8)" font-family="sans-serif" font-size="10px" fill="#000" opacity="1">en</text></g></g><path class="foreground" aria-hidden="true" d="" pointer-events="none" display="none"/></g></g></g><path class="foreground" aria-hidden="true" d="" display="none"/></g><g transform="translate(194,300)"><path class="background" aria-hidden="true" d="M0,0h120v0h-120Z"/><g><g class="mark-group role-axis" role="graphics-symbol" aria-roledescription="axis" aria-label="X-axis titled 'Label' for a discrete scale with 2 values: 0, 1"><g transform="translate(0.5,0.5)"><path class="background" aria-hidden="true" d="M0,0h0v0h0Z" pointer-events="none"/><g><g class="mark-rule role-axis-tick" pointer-events="none"><line transform="translate(30,0)" x2="0" y2="5" stroke="#888" stroke-width="1" opacity="1"/><line transform="translate(90,0)" x2="0" y2="5" stroke="#888" stroke-width="1" opacity="1"/></g><g class="mark-text role-axis-label" pointer-events="none"><text text-anchor="middle" transform="translate(29.5,15)" font-family="sans-serif" font-size="10px" fill="#000" opacity="1">0</text><text text-anchor="middle" transform="translate(89.5,15)" font-family="sans-serif" font-size="10px" fill="#000" opacity="1">1</text></g><g class="mark-rule role-axis-domain" pointer-events="none"><line transform="translate(0,0)" x2="120" y2="0" stroke="#888" stroke-width="1" opacity="1"/></g><g class="mark-text role-axis-title" pointer-events="none"><text text-anchor="middle" transform="translate(60,30)" font-family="sans-serif" font-size="11px" font-weight="bold" fill="#000" opacity="1">Label</text></g></g><path class="foreground" aria-hidden="true" d="" pointer-events="none" display="none"/></g></g><g class="mark-group role-title"><g transform="translate(60,42)"><path class="background" aria-hidden="true" d="M0,0h0v0h0Z" pointer-events="none"/><g><g class="mark-text role-title-text" role="graphics-symbol" aria-roledescription="title" aria-label="Title text 'es'" pointer-events="none"><text text-anchor="middle" transform="translate(0,8)" font-family="sans-serif" font-size="10px" fill="#000" opacity="1">es</text></g></g><path class="foreground" aria-hidden="true" d="" pointer-events="none" display="none"/></g></g></g><path class="foreground" aria-hidden="true" d="" display="none"/></g><g transform="translate(388,300)"><path class="background" aria-hidden="true" d="M0,0h120v0h-120Z"/><g><g class="mark-group role-axis" role="graphics-symbol" aria-roledescription="axis" aria-label="X-axis titled 'Label' for a discrete scale with 2 values: 0, 1"><g transform="translate(0.5,0.5)"><path class="background" aria-hidden="true" d="M0,0h0v0h0Z" pointer-events="none"/><g><g class="mark-rule role-axis-tick" pointer-events="none"><line transform="translate(30,0)" x2="0" y2="5" stroke="#888" stroke-width="1" opacity="1"/><line transform="translate(90,0)" x2="0" y2="5" stroke="#888" stroke-width="1" opacity="1"/></g><g class="mark-text role-axis-label" pointer-events="none"><text text-anchor="middle" transform="translate(29.5,15)" font-family="sans-serif" font-size="10px" fill="#000" opacity="1">0</text><text text-anchor="middle" transform="translate(89.5,15)" font-family="sans-serif" font-size="10px" fill="#000" opacity="1">1</text></g><g class="mark-rule role-axis-domain" pointer-events="none"><line transform="translate(0,0)" x2="120" y2="0" stroke="#888" stroke-width="1" opacity="1"/></g><g class="mark-text role-axis-title" pointer-events="none"><text text-anchor="middle" transform="translate(60,30)" font-family="sans-serif" font-size="11px" font-weight="bold" fill="#000" opacity="1">Label</text></g></g><path class="foreground" aria-hidden="true" d="" pointer-events="none" display="none"/></g></g><g class="mark-group role-title"><g transform="translate(60,42)"><path class="background" aria-hidden="true" d="M0,0h0v0h0Z" pointer-events="none"/><g><g class="mark-text role-title-text" role="graphics-symbol" aria-roledescription="title" aria-label="Title text 'it'" pointer-events="none"><text text-anchor="middle" transform="translate(0,8)" font-family="sans-serif" font-size="10px" fill="#000" opacity="1">it</text></g></g><path class="foreground" aria-hidden="true" d="" pointer-events="none" display="none"/></g></g></g><path class="foreground" aria-hidden="true" d="" display="none"/></g></g><g class="mark-group role-scope cell" role="graphics-object" aria-roledescription="group mark container"><g transform="translate(0,0)"><path class="background" aria-hidden="true" d="M0,0h120v300h-120Z" fill="#FAFAFA" stroke="#ddd" stroke-width="0"/><g><g class="mark-group role-scope" role="graphics-object" aria-roledescription="group mark container"><g transform="translate(3,4.615384615384599)"><path class="background" aria-hidden="true" d="M3,0L51,0C52.655745073482,0,54,1.344254926518,54,3L54,295.3846153846154C54,295.3846153846154,54,295.3846153846154,54,295.3846153846154L0,295.3846153846154C0,295.3846153846154,0,295.3846153846154,0,295.3846153846154L0,3C0,1.344254926518,1.344254926518,0,3,0Z"/><g clip-path="url(#clip1)"><g class="mark-group role-scope" role="graphics-object" aria-roledescription="group mark container"><g transform="translate(0,-4.615384615384599)"><path class="background" aria-hidden="true" d="M0,0h54v0h-54Z"/><g><g class="mark-rect role-mark child_layer_0_marks" role="graphics-object" aria-roledescription="rect mark container"><path aria-label="Label: 0; Count: 2560; label: 0; Language: en; Total Samples: 2560; With Bio: 0" role="graphics-symbol" aria-roledescription="bar" d="M0,4.615384615384599h54v295.3846153846154h-54Z" fill="#1f77b4" opacity="0.9"/></g></g><path class="foreground" aria-hidden="true" d="" display="none"/></g></g></g><path class="foreground" aria-hidden="true" d="" display="none"/></g><g transform="translate(63,250.6153846153846)"><path class="background" aria-hidden="true" d="M3,0L51,0C52.655745073482,0,54,1.344254926518,54,3L54,49.38461538461539C54,49.38461538461539,54,49.38461538461539,54,49.38461538461539L0,49.38461538461539C0,49.38461538461539,0,49.38461538461539,0,49.38461538461539L0,3C0,1.344254926518,1.344254926518,0,3,0Z"/><g clip-path="url(#clip2)"><g class="mark-group role-scope" role="graphics-object" aria-roledescription="group mark container"><g transform="translate(0,-250.6153846153846)"><path class="background" aria-hidden="true" d="M0,0h54v0h-54Z"/><g><g class="mark-rect role-mark child_layer_0_marks" role="graphics-object" aria-roledescription="rect mark container"><path aria-label="Label: 1; Count: 428; label: 1; Language: en; Total Samples: 428; With Bio: 0" role="graphics-symbol" aria-roledescription="bar" d="M0,250.6153846153846h54v49.38461538461539h-54Z" fill="#ff7f0e" opacity="0.9"/></g></g><path class="foreground" aria-hidden="true" d="" display="none"/></g></g></g><path class="foreground" aria-hidden="true" d="" display="none"/></g></g><g class="mark-text role-mark child_layer_1_marks" role="graphics-object" aria-roledescription="text mark container"><text aria-label="Label: 0; Count: 2560; label: 0; label_text: Count: 2,560 | Bio: 0; Language: en; Total Samples: 2560; With Bio: 0" role="graphics-symbol" aria-roledescription="text mark" text-anchor="middle" transform="translate(30,1.615384615384599)" font-family="sans-serif" font-size="11px" font-weight="bold" fill="#1f77b4">Count: 2,560 | Bio: 0</text><text aria-label="Label: 1; Count: 428; label: 1; label_text: Count: 428 | Bio: 0; Language: en; Total Samples: 428; With Bio: 0" role="graphics-symbol" aria-roledescription="text mark" text-anchor="middle" transform="translate(90,247.6153846153846)" font-family="sans-serif" font-size="11px" font-weight="bold" fill="#ff7f0e">Count: 428 | Bio: 0</text></g><g class="mark-text role-mark child_layer_2_marks" role="graphics-object" aria-roledescription="text mark container"><text aria-label="max_count: 2560; label_text: Total: 2,988 | Imb: 0.17" role="graphics-symbol" aria-roledescription="text mark" text-anchor="middle" transform="translate(60,-11.384615384615401)" font-family="sans-serif" font-size="13px" font-weight="bold" fill="black">Total: 2,988 | Imb: 0.17</text></g></g><path class="foreground" aria-hidden="true" d="" display="none"/></g><g transform="translate(194,0)"><path class="background" aria-hidden="true" d="M0,0h120v300h-120Z" fill="#FAFAFA" stroke="#ddd" stroke-width="0"/><g><g class="mark-group role-scope" role="graphics-object" aria-roledescription="group mark container"><g transform="translate(3,4.615384615384599)"><path class="background" aria-hidden="true" d="M3,0L51,0C52.655745073482,0,54,1.344254926518,54,3L54,295.3846153846154C54,295.3846153846154,54,295.3846153846154,54,295.3846153846154L0,295.3846153846154C0,295.3846153846154,0,295.3846153846154,0,295.3846153846154L0,3C0,1.344254926518,1.344254926518,0,3,0Z"/><g clip-path="url(#clip3)"><g class="mark-group role-scope" role="graphics-object" aria-roledescription="group mark container"><g transform="translate(0,-4.615384615384599)"><path class="background" aria-hidden="true" d="M0,0h54v0h-54Z"/><g><g class="mark-rect role-mark child_layer_0_marks" role="graphics-object" aria-roledescription="rect mark container"><path aria-label="Label: 0; Count: 2560; label: 0; Language: es; Total Samples: 2560; With Bio: 703" role="graphics-symbol" aria-roledescription="bar" d="M0,4.615384615384599h54v295.3846153846154h-54Z" fill="#1f77b4" opacity="0.9"/></g></g><path class="foreground" aria-hidden="true" d="" display="none"/></g></g></g><path class="foreground" aria-hidden="true" d="" display="none"/></g><g transform="translate(63,250.6153846153846)"><path class="background" aria-hidden="true" d="M3,0L51,0C52.655745073482,0,54,1.344254926518,54,3L54,49.38461538461539C54,49.38461538461539,54,49.38461538461539,54,49.38461538461539L0,49.38461538461539C0,49.38461538461539,0,49.38461538461539,0,49.38461538461539L0,3C0,1.344254926518,1.344254926518,0,3,0Z"/><g clip-path="url(#clip4)"><g class="mark-group role-scope" role="graphics-object" aria-roledescription="group mark container"><g transform="translate(0,-250.6153846153846)"><path class="background" aria-hidden="true" d="M0,0h54v0h-54Z"/><g><g class="mark-rect role-mark child_layer_0_marks" role="graphics-object" aria-roledescription="rect mark container"><path aria-label="Label: 1; Count: 428; label: 1; Language: es; Total Samples: 428; With Bio: 124" role="graphics-symbol" aria-roledescription="bar" d="M0,250.6153846153846h54v49.38461538461539h-54Z" fill="#ff7f0e" opacity="0.9"/></g></g><path class="foreground" aria-hidden="true" d="" display="none"/></g></g></g><path class="foreground" aria-hidden="true" d="" display="none"/></g></g><g class="mark-text role-mark child_layer_1_marks" role="graphics-object" aria-roledescription="text mark container"><text aria-label="Label: 0; Count: 2560; label: 0; label_text: Count: 2,560 | Bio: 703; Language: es; Total Samples: 2560; With Bio: 703" role="graphics-symbol" aria-roledescription="text mark" text-anchor="middle" transform="translate(30,1.615384615384599)" font-family="sans-serif" font-size="11px" font-weight="bold" fill="#1f77b4">Count: 2,560 | Bio: 703</text><text aria-label="Label: 1; Count: 428; label: 1; label_text: Count: 428 | Bio: 124; Language: es; Total Samples: 428; With Bio: 124" role="graphics-symbol" aria-roledescription="text mark" text-anchor="middle" transform="translate(90,247.6153846153846)" font-family="sans-serif" font-size="11px" font-weight="bold" fill="#ff7f0e">Count: 428 | Bio: 124</text></g><g class="mark-text role-mark child_layer_2_marks" role="graphics-object" aria-roledescription="text mark container"><text aria-label="max_count: 2560; label_text: Total: 2,988 | Imb: 0.17" role="graphics-symbol" aria-roledescription="text mark" text-anchor="middle" transform="translate(60,-11.384615384615401)" font-family="sans-serif" font-size="13px" font-weight="bold" fill="black">Total: 2,988 | Imb: 0.17</text></g></g><path class="foreground" aria-hidden="true" d="" display="none"/></g><g transform="translate(388,0)"><path class="background" aria-hidden="true" d="M0,0h120v300h-120Z" fill="#FAFAFA" stroke="#ddd" stroke-width="0"/><g><g class="mark-group role-scope" role="graphics-object" aria-roledescription="group mark container"><g transform="translate(3,4.615384615384599)"><path class="background" aria-hidden="true" d="M3,0L51,0C52.655745073482,0,54,1.344254926518,54,3L54,295.3846153846154C54,295.3846153846154,54,295.3846153846154,54,295.3846153846154L0,295.3846153846154C0,295.3846153846154,0,295.3846153846154,0,295.3846153846154L0,3C0,1.344254926518,1.344254926518,0,3,0Z"/><g clip-path="url(#clip5)"><g class="mark-group role-scope" role="graphics-object" aria-roledescription="group mark container"><g transform="translate(0,-4.615384615384599)"><path class="background" aria-hidden="true" d="M0,0h54v0h-54Z"/><g><g class="mark-rect role-mark child_layer_0_marks" role="graphics-object" aria-roledescription="rect mark container"><path aria-label="Label: 0; Count: 2560; label: 0; Language: it; Total Samples: 2560; With Bio: 798" role="graphics-symbol" aria-roledescription="bar" d="M0,4.615384615384599h54v295.3846153846154h-54Z" fill="#1f77b4" opacity="0.9"/></g></g><path class="foreground" aria-hidden="true" d="" display="none"/></g></g></g><path class="foreground" aria-hidden="true" d="" display="none"/></g><g transform="translate(63,250.6153846153846)"><path class="background" aria-hidden="true" d="M3,0L51,0C52.655745073482,0,54,1.344254926518,54,3L54,49.38461538461539C54,49.38461538461539,54,49.38461538461539,54,49.38461538461539L0,49.38461538461539C0,49.38461538461539,0,49.38461538461539,0,49.38461538461539L0,3C0,1.344254926518,1.344254926518,0,3,0Z"/><g clip-path="url(#clip6)"><g class="mark-group role-scope" role="graphics-object" aria-roledescription="group mark container"><g transform="translate(0,-250.6153846153846)"><path class="background" aria-hidden="true" d="M0,0h54v0h-54Z"/><g><g class="mark-rect role-mark child_layer_0_marks" role="graphics-object" aria-roledescription="rect mark container"><path aria-label="Label: 1; Count: 428; label: 1; Language: it; Total Samples: 428; With Bio: 202" role="graphics-symbol" aria-roledescription="bar" d="M0,250.6153846153846h54v49.38461538461539h-54Z" fill="#ff7f0e" opacity="0.9"/></g></g><path class="foreground" aria-hidden="true" d="" display="none"/></g></g></g><path class="foreground" aria-hidden="true" d="" display="none"/></g></g><g class="mark-text role-mark child_layer_1_marks" role="graphics-object" aria-roledescription="text mark container"><text aria-label="Label: 0; Count: 2560; label: 0; label_text: Count: 2,560 | Bio: 798; Language: it; Total Samples: 2560; With Bio: 798" role="graphics-symbol" aria-roledescription="text mark" text-anchor="middle" transform="translate(30,1.615384615384599)" font-family="sans-serif" font-size="11px" font-weight="bold" fill="#1f77b4">Count: 2,560 | Bio: 798</text><text aria-label="Label: 1; Count: 428; label: 1; label_text: Count: 428 | Bio: 202; Language: it; Total Samples: 428; With Bio: 202" role="graphics-symbol" aria-roledescription="text mark" text-anchor="middle" transform="translate(90,247.6153846153846)" font-family="sans-serif" font-size="11px" font-weight="bold" fill="#ff7f0e">Count: 428 | Bio: 202</text></g><g class="mark-text role-mark child_layer_2_marks" role="graphics-object" aria-roledescription="text mark container"><text aria-label="max_count: 2560; label_text: Total: 2,988 | Imb: 0.17" role="graphics-symbol" aria-roledescription="text mark" text-anchor="middle" transform="translate(60,-11.384615384615401)" font-family="sans-serif" font-size="13px" font-weight="bold" fill="black">Total: 2,988 | Imb: 0.17</text></g></g><path class="foreground" aria-hidden="true" d="" display="none"/></g></g><g class="mark-group role-legend" role="graphics-symbol" aria-roledescription="legend" aria-label="Symbol legend titled 'Label' for fill color with 2 values: 0, 1"><g transform="translate(551,0)"><path class="background" aria-hidden="true" d="M0,0h29v40h-29Z" pointer-events="none"/><g><g class="mark-group role-legend-entry"><g transform="translate(0,16)"><path class="background" aria-hidden="true" d="M0,0h0v0h0Z" pointer-events="none"/><g><g class="mark-group role-scope" role="graphics-object" aria-roledescription="group mark container"><g transform="translate(0,0)"><path class="background" aria-hidden="true" d="M0,0h21.5615234375v11h-21.5615234375Z" pointer-events="none" opacity="1"/><g><g class="mark-symbol role-legend-symbol" pointer-events="none"><path transform="translate(6,6)" d="M5,0A5,5,0,1,1,-5,0A5,5,0,1,1,5,0" fill="#1f77b4" stroke-width="1.5" opacity="0.9"/></g><g class="mark-text role-legend-label" pointer-events="none"><text text-anchor="start" transform="translate(16,9)" font-family="sans-serif" font-size="10px" fill="#000" opacity="1">0</text></g></g><path class="foreground" aria-hidden="true" d="" pointer-events="none" display="none"/></g><g transform="translate(0,13)"><path class="background" aria-hidden="true" d="M0,0h21.5615234375v11h-21.5615234375Z" pointer-events="none" opacity="1"/><g><g class="mark-symbol role-legend-symbol" pointer-events="none"><path transform="translate(6,6)" d="M5,0A5,5,0,1,1,-5,0A5,5,0,1,1,5,0" fill="#ff7f0e" stroke-width="1.5" opacity="0.9"/></g><g class="mark-text role-legend-label" pointer-events="none"><text text-anchor="start" transform="translate(16,9)" font-family="sans-serif" font-size="10px" fill="#000" opacity="1">1</text></g></g><path class="foreground" aria-hidden="true" d="" pointer-events="none" display="none"/></g></g></g><path class="foreground" aria-hidden="true" d="" pointer-events="none" display="none"/></g></g><g class="mark-text role-legend-title" pointer-events="none"><text text-anchor="start" transform="translate(0,9)" font-family="sans-serif" font-size="11px" font-weight="bold" fill="#000" opacity="1">Label</text></g></g><path class="foreground" aria-hidden="true" d="" pointer-events="none" display="none"/></g></g><g class="mark-group role-title"><g transform="translate(-70.0244140625,-70)"><path class="background" aria-hidden="true" d="M0,0h0v0h0Z" pointer-events="none"/><g><g class="mark-text role-title-text" role="graphics-symbol" aria-roledescription="title" aria-label="Title text 'Label Distribution by Language'" pointer-events="none"><text text-anchor="start" transform="translate(0,10)" font-family="sans-serif" font-size="13px" font-weight="bold" fill="#000" opacity="1">Label Distribution by Language</text></g></g><path class="foreground" aria-hidden="true" d="" pointer-events="none" display="none"/></g></g></g><path class="foreground" aria-hidden="true" d="" display="none"/></g></g></g><defs><clipPath id="clip1"><path d="M3,0L51,0C52.655745073482,0,54,1.344254926518,54,3L54,295.3846153846154C54,295.3846153846154,54,295.3846153846154,54,295.3846153846154L0,295.3846153846154C0,295.3846153846154,0,295.3846153846154,0,295.3846153846154L0,3C0,1.344254926518,1.344254926518,0,3,0Z"/></clipPath><clipPath id="clip2"><path d="M3,0L51,0C52.655745073482,0,54,1.344254926518,54,3L54,49.38461538461539C54,49.38461538461539,54,49.38461538461539,54,49.38461538461539L0,49.38461538461539C0,49.38461538461539,0,49.38461538461539,0,49.38461538461539L0,3C0,1.344254926518,1.344254926518,0,3,0Z"/></clipPath><clipPath id="clip3"><path d="M3,0L51,0C52.655745073482,0,54,1.344254926518,54,3L54,295.3846153846154C54,295.3846153846154,54,295.3846153846154,54,295.3846153846154L0,295.3846153846154C0,295.3846153846154,0,295.3846153846154,0,295.3846153846154L0,3C0,1.344254926518,1.344254926518,0,3,0Z"/></clipPath><clipPath id="clip4"><path d="M3,0L51,0C52.655745073482,0,54,1.344254926518,54,3L54,49.38461538461539C54,49.38461538461539,54,49.38461538461539,54,49.38461538461539L0,49.38461538461539C0,49.38461538461539,0,49.38461538461539,0,49.38461538461539L0,3C0,1.344254926518,1.344254926518,0,3,0Z"/></clipPath><clipPath id="clip5"><path d="M3,0L51,0C52.655745073482,0,54,1.344254926518,54,3L54,295.3846153846154C54,295.3846153846154,54,295.3846153846154,54,295.3846153846154L0,295.3846153846154C0,295.3846153846154,0,295.3846153846154,0,295.3846153846154L0,3C0,1.344254926518,1.344254926518,0,3,0Z"/></clipPath><clipPath id="clip6"><path d="M3,0L51,0C52.655745073482,0,54,1.344254926518,54,3L54,49.38461538461539C54,49.38461538461539,54,49.38461538461539,54,49.38461538461539L0,49.38461538461539C0,49.38461538461539,0,49.38461538461539,0,49.38461538461539L0,3C0,1.344254926518,1.344254926518,0,3,0Z"/></clipPath></defs></svg>