<svg xmlns="http://www.w3.org/2000/svg" xmlns:xlink="http://www.w3.org/1999/xlink" version="1.1" class="marks" width="721" height="364" viewBox="0 0 721 364"><rect width="721" height="364" fill="white"/><g fill="none" stroke-miterlimit="10" transform="translate(47,27)"><g class="mark-group role-frame root" role="graphics-object" aria-roledescription="group mark container"><g transform="translate(0,0)"><path class="background" aria-hidden="true" d="M0.5,0.5h600v300h-600Z" stroke="#ddd"/><g><g class="mark-group role-axis" aria-hidden="true"><g transform="translate(0.5,300.5)"><path class="background" aria-hidden="true" d="M0,0h0v0h0Z" pointer-events="none"/><g><g class="mark-rule role-axis-grid" pointer-events="none"><line transform="translate(0,-300)" x2="0" y2="300" stroke="#ddd" stroke-width="1" opacity="1"/><line transform="translate(40,-300)" x2="0" y2="300" stroke="#ddd" stroke-width="1" opacity="1"/><line transform="translate(80,-300)" x2="0" y2="300" stroke="#ddd" stroke-width="1" opacity="1"/><line transform="translate(120,-300)" x2="0" y2="300" stroke="#ddd" stroke-width="1" opacity="1"/><line transform="translate(160,-300)" x2="0" y2="300" stroke="#ddd" stroke-width="1" opacity="1"/><line transform="translate(200,-300)" x2="0" y2="300" stroke="#ddd" stroke-width="1" opacity="1"/><line transform="translate(240,-300)" x2="0" y2="300" stroke="#ddd" stroke-width="1" opacity="1"/><line transform="translate(280,-300)" x2="0" y2="300" stroke="#ddd" stroke-width="1" opacity="1"/><line transform="translate(320,-300)" x2="0" y2="300" stroke="#ddd" stroke-width="1" opacity="1"/><line transform="translate(360,-300)" x2="0" y2="300" stroke="#ddd" stroke-width="1" opacity="1"/><line transform="translate(400,-300)" x2="0" y2="300" stroke="#ddd" stroke-width="1" opacity="1"/><line transform="translate(440,-300)" x2="0" y2="300" stroke="#ddd" stroke-width="1" opacity="1"/><line transform="translate(480,-300)" x2="0" y2="300" stroke="#ddd" stroke-width="1" opacity="1"/><line transform="translate(520,-300)" x2="0" y2="300" stroke="#ddd" stroke-width="1" opacity="1"/><line transform="translate(560,-300)" x2="0" y2="300" stroke="#ddd" stroke-width="1" opacity="1"/><line transform="translate(600,-300)" x2="0" y2="300" stroke="#ddd" stroke-width="1" opacity="1"/></g></g><path class="foreground" aria-hidden="true" d="" pointer-events="none" display="none"/></g></g><g class="mark-group role-axis" aria-hidden="true"><g transform="translate(0.5,0.5)"><path class="background" aria-hidden="true" d="M0,0h0v0h0Z" pointer-events="none"/><g><g class="mark-rule role-axis-grid" pointer-events="none"><line transform="translate(0,300)" x2="600" y2="0" stroke="#ddd" stroke-width="1" opacity="1"/><line transform="translate(0,273)" x2="600" y2="0" stroke="#ddd" stroke-width="1" opacity="1"/><line transform="translate(0,245)" x2="600" y2="0" stroke="#ddd" stroke-width="1" opacity="1"/><line transform="translate(0,218)" x2="600" y2="0" stroke="#ddd" stroke-width="1" opacity="1"/><line transform="translate(0,191)" x2="600" y2="0" stroke="#ddd" stroke-width="1" opacity="1"/><line transform="translate(0,164)" x2="600" y2="0" stroke="#ddd" stroke-width="1" opacity="1"/><line transform="translate(0,136)" x2="600" y2="0" stroke="#ddd" stroke-width="1" opacity="1"/><line transform="translate(0,109)" x2="600" y2="0" stroke="#ddd" stroke-width="1" opacity="1"/><line transform="translate(0,82)" x2="600" y2="0" stroke="#ddd" stroke-width="1" opacity="1"/><line transform="translate(0,55)" x2="600" y2="0" stroke="#ddd" stroke-width="1" opacity="1"/><line transform="translate(0,27)" x2="600" y2="0" stroke="#ddd" stroke-width="1" opacity="1"/><line transform="translate(0,0)" x2="600" y2="0" stroke="#ddd" stroke-width="1" opacity="1"/></g></g><path class="foreground" aria-hidden="true" d="" pointer-events="none" display="none"/></g></g><g class="mark-group role-axis" role="graphics-symbol" aria-roledescription="axis" aria-label="X-axis titled 'epoch' for a linear scale with values from 0.0 to 3.0"><g transform="translate(0.5,300.5)"><path class="background" aria-hidden="true" d="M0,0h0v0h0Z" pointer-events="none"/><g><g class="mark-rule role-axis-tick" pointer-events="none"><line transform="translate(0,0)" x2="0" y2="5" stroke="#888" stroke-width="1" opacity="1"/><line transform="translate(40,0)" x2="0" y2="5" stroke="#888" stroke-width="1" opacity="1"/><line transform="translate(80,0)" x2="0" y2="5" stroke="#888" stroke-width="1" opacity="1"/><line transform="translate(120,0)" x2="0" y2="5" stroke="#888" stroke-width="1" opacity="1"/><line transform="translate(160,0)" x2="0" y2="5" stroke="#888" stroke-width="1" opacity="1"/><line transform="translate(200,0)" x2="0" y2="5" stroke="#888" stroke-width="1" opacity="1"/><line transform="translate(240,0)" x2="0" y2="5" stroke="#888" stroke-width="1" opacity="1"/><line transform="translate(280,0)" x2="0" y2="5" stroke="#888" stroke-width="1" opacity="1"/><line transform="translate(320,0)" x2="0" y2="5" stroke="#888" stroke-width="1" opacity="1"/><line transform="translate(360,0)" x2="0" y2="5" stroke="#888" stroke-width="1" opacity="1"/><line transform="translate(400,0)" x2="0" y2="5" stroke="#888" stroke-width="1" opacity="1"/><line transform="translate(440,0)" x2="0" y2="5" stroke="#888" stroke-width="1" opacity="1"/><line transform="translate(480,0)" x2="0" y2="5" stroke="#888" stroke-width="1" opacity="1"/><line transform="translate(520,0)" x2="0" y2="5" stroke="#888" stroke-width="1" opacity="1"/><line transform="translate(560,0)" x2="0" y2="5" stroke="#888" stroke-width="1" opacity="1"/><line transform="translate(600,0)" x2="0" y2="5" stroke="#888" stroke-width="1" opacity="1"/></g><g class="mark-text role-axis-label" pointer-events="none"><text text-anchor="start" transform="translate(0,15)" font-family="sans-serif" font-size="10px" fill="#000" opacity="1">0.0</text><text text-anchor="middle" transform="translate(40,15)" font-family="sans-serif" font-size="10px" fill="#000" opacity="1">0.2</text><text text-anchor="middle" transform="translate(80,15)" font-family="sans-serif" font-size="10px" fill="#000" opacity="1">0.4</text><text text-anchor="middle" transform="translate(119.99999999999999,15)" font-family="sans-serif" font-size="10px" fill="#000" opacity="1">0.6</text><text text-anchor="middle" transform="translate(160,15)" font-family="sans-serif" font-size="10px" fill="#000" opacity="1">0.8</text><text text-anchor="middle" transform="translate(200,15)" font-family="sans-serif" font-size="10px" fill="#000" opacity="1">1.0</text><text text-anchor="middle" transform="translate(239.99999999999997,15)" font-family="sans-serif" font-size="10px" fill="#000" opacity="1">1.2</text><text text-anchor="middle" transform="translate(279.99999999999994,15)" font-family="sans-serif" font-size="10px" fill="#000" opacity="1">1.4</text><text text-anchor="middle" transform="translate(320,15)" font-family="sans-serif" font-size="10px" fill="#000" opacity="1">1.6</text><text text-anchor="middle" transform="translate(360,15)" font-family="sans-serif" font-size="10px" fill="#000" opacity="1">1.8</text><text text-anchor="middle" transform="translate(400,15)" font-family="sans-serif" font-size="10px" fill="#000" opacity="1">2.0</text><text text-anchor="middle" transform="translate(440.00000000000006,15)" font-family="sans-serif" font-size="10px" fill="#000" opacity="1">2.2</text><text text-anchor="middle" transform="translate(479.99999999999994,15)" font-family="sans-serif" font-size="10px" fill="#000" opacity="1">2.4</text><text text-anchor="middle" transform="translate(520,15)" font-family="sans-serif" font-size="10px" fill="#000" opacity="1">2.6</text><text text-anchor="middle" transform="translate(559.9999999999999,15)" font-family="sans-serif" font-size="10px" fill="#000" opacity="1">2.8</text><text text-anchor="end" transform="translate(600,15)" font-family="sans-serif" font-size="10px" fill="#000" opacity="1">3.0</text></g><g class="mark-rule role-axis-domain" pointer-events="none"><line transform="translate(0,0)" x2="600" y2="0" stroke="#888" stroke-width="1" opacity="1"/></g><g class="mark-text role-axis-title" pointer-events="none"><text text-anchor="middle" transform="translate(300,30)" font-family="sans-serif" font-size="11px" font-weight="bold" fill="#000" opacity="1">epoch</text></g></g><path class="foreground" aria-hidden="true" d="" pointer-events="none" display="none"/></g></g><g class="mark-group role-axis" role="graphics-symbol" aria-roledescription="axis" aria-label="Y-axis titled 'f1' for a linear scale with values from 0.4 to 0.9"><g transform="translate(0.5,0.5)"><path class="background" aria-hidden="true" d="M0,0h0v0h0Z" pointer-events="none"/><g><g class="mark-rule role-axis-tick" pointer-events="none"><line transform="translate(0,300)" x2="-5" y2="0" stroke="#888" stroke-width="1" opacity="1"/><line transform="translate(0,273)" x2="-5" y2="0" stroke="#888" stroke-width="1" opacity="1"/><line transform="translate(0,245)" x2="-5" y2="0" stroke="#888" stroke-width="1" opacity="1"/><line transform="translate(0,218)" x2="-5" y2="0" stroke="#888" stroke-width="1" opacity="1"/><line transform="translate(0,191)" x2="-5" y2="0" stroke="#888" stroke-width="1" opacity="1"/><line transform="translate(0,164)" x2="-5" y2="0" stroke="#888" stroke-width="1" opacity="1"/><line transform="translate(0,136)" x2="-5" y2="0" stroke="#888" stroke-width="1" opacity="1"/><line transform="translate(0,109)" x2="-5" y2="0" stroke="#888" stroke-width="1" opacity="1"/><line transform="translate(0,82)" x2="-5" y2="0" stroke="#888" stroke-width="1" opacity="1"/><line transform="translate(0,55)" x2="-5" y2="0" stroke="#888" stroke-width="1" opacity="1"/><line transform="translate(0,27)" x2="-5" y2="0" stroke="#888" stroke-width="1" opacity="1"/><line transform="translate(0,0)" x2="-5" y2="0" stroke="#888" stroke-width="1" opacity="1"/></g><g class="mark-text role-axis-label" pointer-events="none"><text text-anchor="end" transform="translate(-7,303)" font-family="sans-serif" font-size="10px" fill="#000" opacity="1">0.40</text><text text-anchor="end" transform="translate(-7,275.7272727272727)" font-family="sans-serif" font-size="10px" fill="#000" opacity="1">0.45</text><text text-anchor="end" transform="translate(-7,248.45454545454547)" font-family="sans-serif" font-size="10px" fill="#000" opacity="1">0.50</text><text text-anchor="end" transform="translate(-7,221.18181818181816)" font-family="sans-serif" font-size="10px" fill="#000" opacity="1">0.55</text><text text-anchor="end" transform="translate(-7,193.90909090909093)" font-family="sans-serif" font-size="10px" fill="#000" opacity="1">0.60</text><text text-anchor="end" transform="translate(-7,166.63636363636363)" font-family="sans-serif" font-size="10px" fill="#000" opacity="1">0.65</text><text text-anchor="end" transform="translate(-7,139.36363636363637)" font-family="sans-serif" font-size="10px" fill="#000" opacity="1">0.70</text><text text-anchor="end" transform="translate(-7,112.0909090909091)" font-family="sans-serif" font-size="10px" fill="#000" opacity="1">0.75</text><text text-anchor="end" transform="translate(-7,84.81818181818178)" font-family="sans-serif" font-size="10px" fill="#000" opacity="1">0.80</text><text text-anchor="end" transform="translate(-7,57.54545454545453)" font-family="sans-serif" font-size="10px" fill="#000" opacity="1">0.85</text><text text-anchor="end" transform="translate(-7,30.27272727272725)" font-family="sans-serif" font-size="10px" fill="#000" opacity="1">0.90</text><text text-anchor="end" transform="translate(-7,3)" font-family="sans-serif" font-size="10px" fill="#000" opacity="1">0.95</text></g><g class="mark-rule role-axis-domain" pointer-events="none"><line transform="translate(0,300)" x2="0" y2="-300" stroke="#888" stroke-width="1" opacity="1"/></g><g class="mark-text role-axis-title" pointer-events="none"><text text-anchor="middle" transform="translate(-30.462890625,150) rotate(-90) translate(0,-2)" font-family="sans-serif" font-size="11px" font-weight="bold" fill="#000" opacity="1">f1</text></g></g><path class="foreground" aria-hidden="true" d="" pointer-events="none" display="none"/></g></g><g class="mark-group role-scope layer_0_pathgroup" role="graphics-object" aria-roledescription="group mark container"><g transform="translate(0,0)"><path class="background" aria-hidden="true" d="M0,0h600v300h-600Z"/><g><g class="mark-line role-mark layer_0_marks" role="graphics-object" aria-roledescription="line mark container"><path aria-label="epoch: 0; f1: 0.452961672474; language: EN; fold: 0" role="graphics-symbol" aria-roledescription="line mark" d="M0,271.112L200,271.112L400,271.112L600,271.112" stroke="#4c78a8" stroke-width="2" stroke-dasharray="1,0"/></g></g><path class="foreground" aria-hidden="true" d="" display="none"/></g><g transform="translate(0,0)"><path class="background" aria-hidden="true" d="M0,0h600v300h-600Z"/><g><g class="mark-line role-mark layer_0_marks" role="graphics-object" aria-roledescription="line mark container"><path aria-label="epoch: 0; f1: 0.452961672474; language: EN; fold: 1" role="graphics-symbol" aria-roledescription="line mark" d="M0,271.112L200,271.112L400,271.112L600,271.112" stroke="#4c78a8" stroke-width="2" stroke-dasharray="4,2"/></g></g><path class="foreground" aria-hidden="true" d="" display="none"/></g><g transform="translate(0,0)"><path class="background" aria-hidden="true" d="M0,0h600v300h-600Z"/><g><g class="mark-line role-mark layer_0_marks" role="graphics-object" aria-roledescription="line mark container"><path aria-label="epoch: 0; f1: 0.452961672474; language: EN; fold: 2" role="graphics-symbol" aria-roledescription="line mark" d="M0,271.112L200,271.112L400,271.112L600,271.112" stroke="#4c78a8" stroke-width="2" stroke-dasharray="2,1"/></g></g><path class="foreground" aria-hidden="true" d="" display="none"/></g><g transform="translate(0,0)"><path class="background" aria-hidden="true" d="M0,0h600v300h-600Z"/><g><g class="mark-line role-mark layer_0_marks" role="graphics-object" aria-roledescription="line mark container"><path aria-label="epoch: 0; f1: 0.452173913043; language: EN; fold: 3" role="graphics-symbol" aria-roledescription="line mark" d="M0,271.542L200,271.542L400,271.542L600,271.542" stroke="#4c78a8" stroke-width="2" stroke-dasharray="1,1"/></g></g><path class="foreground" aria-hidden="true" d="" display="none"/></g><g transform="translate(0,0)"><path class="background" aria-hidden="true" d="M0,0h600v300h-600Z"/><g><g class="mark-line role-mark layer_0_marks" role="graphics-object" aria-roledescription="line mark container"><path aria-label="epoch: 0; f1: 0.452961672474; language: EN; fold: 4" role="graphics-symbol" aria-roledescription="line mark" d="M0,271.112L200,271.112L400,271.112L600,271.112" stroke="#4c78a8" stroke-width="2" stroke-dasharray="1,2,4,2"/></g></g><path class="foreground" aria-hidden="true" d="" display="none"/></g><g transform="translate(0,0)"><path class="background" aria-hidden="true" d="M0,0h600v300h-600Z"/><g><g class="mark-line role-mark layer_0_marks" role="graphics-object" aria-roledescription="line mark container"><path aria-label="epoch: 0; f1: 0.462519936204; language: ES; fold: 0" role="graphics-symbol" aria-roledescription="line mark" d="M0,265.898L200,265.898L400,265.898L600,265.898" stroke="#f58518" stroke-width="2" stroke-dasharray="1,0"/></g></g><path class="foreground" aria-hidden="true" d="" display="none"/></g><g transform="translate(0,0)"><path class="background" aria-hidden="true" d="M0,0h600v300h-600Z"/><g><g class="mark-line role-mark layer_0_marks" role="graphics-object" aria-roledescription="line mark container"><path aria-label="epoch: 0; f1: 0.46178343949; language: ES; fold: 1" role="graphics-symbol" aria-roledescription="line mark" d="M0,266.3L200,266.3L400,266.3L600,266.3" stroke="#f58518" stroke-width="2" stroke-dasharray="4,2"/></g></g><path class="foreground" aria-hidden="true" d="" display="none"/></g><g transform="translate(0,0)"><path class="background" aria-hidden="true" d="M0,0h600v300h-600Z"/><g><g class="mark-line role-mark layer_0_marks" role="graphics-object" aria-roledescription="line mark container"><path aria-label="epoch: 0; f1: 0.46178343949; language: ES; fold: 2" role="graphics-symbol" aria-roledescription="line mark" d="M0,266.3L200,266.3L400,266.3L600,266.3" stroke="#f58518" stroke-width="2" stroke-dasharray="2,1"/></g></g><path class="foreground" aria-hidden="true" d="" display="none"/></g><g transform="translate(0,0)"><path class="background" aria-hidden="true" d="M0,0h600v300h-600Z"/><g><g class="mark-line role-mark layer_0_marks" role="graphics-object" aria-roledescription="line mark container"><path aria-label="epoch: 0; f1: 0.46178343949; language: ES; fold: 3" role="graphics-symbol" aria-roledescription="line mark" d="M0,266.3L200,266.3L400,266.3L600,266.3" stroke="#f58518" stroke-width="2" stroke-dasharray="1,1"/></g></g><path class="foreground" aria-hidden="true" d="" display="none"/></g><g transform="translate(0,0)"><path class="background" aria-hidden="true" d="M0,0h600v300h-600Z"/><g><g class="mark-line role-mark layer_0_marks" role="graphics-object" aria-roledescription="line mark container"><path aria-label="epoch: 0; f1: 0.46178343949; language: ES; fold: 4" role="graphics-symbol" aria-roledescription="line mark" d="M0,266.3L200,266.3L400,266.3L600,266.3" stroke="#f58518" stroke-width="2" stroke-dasharray="1,2,4,2"/></g></g><path class="foreground" aria-hidden="true" d="" display="none"/></g><g transform="translate(0,0)"><path class="background" aria-hidden="true" d="M0,0h600v300h-600Z"/><g><g class="mark-line role-mark layer_0_marks" role="graphics-object" aria-roledescription="line mark container"><path aria-label="epoch: 0; f1: 0.468641114983; language: IT; fold: 0" role="graphics-symbol" aria-roledescription="line mark" d="M0,262.559L200,262.559L400,262.559L600,262.559" stroke="#e45756" stroke-width="2" stroke-dasharray="1,0"/></g></g><path class="foreground" aria-hidden="true" d="" display="none"/></g><g transform="translate(0,0)"><path class="background" aria-hidden="true" d="M0,0h600v300h-600Z"/><g><g class="mark-line role-mark layer_0_marks" role="graphics-object" aria-roledescription="line mark container"><path aria-label="epoch: 0; f1: 0.468641114983; language: IT; fold: 1" role="graphics-symbol" aria-roledescription="line mark" d="M0,262.559L200,262.559L400,262.559L600,262.559" stroke="#e45756" stroke-width="2" stroke-dasharray="4,2"/></g></g><path class="foreground" aria-hidden="true" d="" display="none"/></g><g transform="translate(0,0)"><path class="background" aria-hidden="true" d="M0,0h600v300h-600Z"/><g><g class="mark-line role-mark layer_0_marks" role="graphics-object" aria-roledescription="line mark container"><path aria-label="epoch: 0; f1: 0.468641114983; language: IT; fold: 2" role="graphics-symbol" aria-roledescription="line mark" d="M0,262.559L200,262.559L400,262.559L600,262.559" stroke="#e45756" stroke-width="2" stroke-dasharray="2,1"/></g></g><path class="foreground" aria-hidden="true" d="" display="none"/></g><g transform="translate(0,0)"><path class="background" aria-hidden="true" d="M0,0h600v300h-600Z"/><g><g class="mark-line role-mark layer_0_marks" role="graphics-object" aria-roledescription="line mark container"><path aria-label="epoch: 0; f1: 0.469458987784; language: IT; fold: 3" role="graphics-symbol" aria-roledescription="line mark" d="M0,262.113L200,262.113L400,262.113L600,262.113" stroke="#e45756" stroke-width="2" stroke-dasharray="1,1"/></g></g><path class="foreground" aria-hidden="true" d="" display="none"/></g><g transform="translate(0,0)"><path class="background" aria-hidden="true" d="M0,0h600v300h-600Z"/><g><g class="mark-line role-mark layer_0_marks" role="graphics-object" aria-roledescription="line mark container"><path aria-label="epoch: 0; f1: 0.468641114983; language: IT; fold: 4" role="graphics-symbol" aria-roledescription="line mark" d="M0,262.559L200,262.559L400,262.559L600,262.559" stroke="#e45756" stroke-width="2" stroke-dasharray="1,2,4,2"/></g></g><path class="foreground" aria-hidden="true" d="" display="none"/></g></g><g class="mark-symbol role-mark layer_1_marks" role="graphics-object" aria-roledescription="symbol mark container"><path aria-label="epoch: 0; f1: 0.452961672474; language: EN; fold: 0" role="graphics-symbol" aria-roledescription="point" transform="translate(0,271.11181501425403)" d="M2.739,0A2.739,2.739,0,1,1,-2.739,0A2.739,2.739,0,1,1,2.739,0" fill="#4c78a8" stroke-width="2" stroke-dasharray="1,0" opacity="1"/><path aria-label="epoch: 1; f1: 0.452961672474; language: EN; fold: 0" role="graphics-symbol" aria-roledescription="point" transform="translate(200,271.11181501425403)" d="M2.739,0A2.739,2.739,0,1,1,-2.739,0A2.739,2.739,0,1,1,2.739,0" fill="#4c78a8" stroke-width="2" stroke-dasharray="1,0" opacity="1"/><path aria-label="epoch: 2; f1: 0.452961672474; language: EN; fold: 0" role="graphics-symbol" aria-roledescription="point" transform="translate(400,271.11181501425403)" d="M2.739,0A2.739,2.739,0,1,1,-2.739,0A2.739,2.739,0,1,1,2.739,0" fill="#4c78a8" stroke-width="2" stroke-dasharray="1,0" opacity="1"/><path aria-label="epoch: 3; f1: 0.452961672474; language: EN; fold: 0" role="graphics-symbol" aria-roledescription="point" transform="translate(600,271.11181501425403)" d="M2.739,0A2.739,2.739,0,1,1,-2.739,0A2.739,2.739,0,1,1,2.739,0" fill="#4c78a8" stroke-width="2" stroke-dasharray="1,0" opacity="1"/><path aria-label="epoch: 0; f1: 0.452961672474; language: EN; fold: 1" role="graphics-symbol" aria-roledescription="point" transform="translate(0,271.11181501425403)" d="M2.739,0A2.739,2.739,0,1,1,-2.739,0A2.739,2.739,0,1,1,2.739,0" fill="#4c78a8" stroke-width="2" stroke-dasharray="4,2" opacity="1"/><path aria-label="epoch: 1; f1: 0.452961672474; language: EN; fold: 1" role="graphics-symbol" aria-roledescription="point" transform="translate(200,271.11181501425403)" d="M2.739,0A2.739,2.739,0,1,1,-2.739,0A2.739,2.739,0,1,1,2.739,0" fill="#4c78a8" stroke-width="2" stroke-dasharray="4,2" opacity="1"/><path aria-label="epoch: 2; f1: 0.452961672474; language: EN; fold: 1" role="graphics-symbol" aria-roledescription="point" transform="translate(400,271.11181501425403)" d="M2.739,0A2.739,2.739,0,1,1,-2.739,0A2.739,2.739,0,1,1,2.739,0" fill="#4c78a8" stroke-width="2" stroke-dasharray="4,2" opacity="1"/><path aria-label="epoch: 3; f1: 0.452961672474; language: EN; fold: 1" role="graphics-symbol" aria-roledescription="point" transform="translate(600,271.11181501425403)" d="M2.739,0A2.739,2.739,0,1,1,-2.739,0A2.739,2.739,0,1,1,2.739,0" fill="#4c78a8" stroke-width="2" stroke-dasharray="4,2" opacity="1"/><path aria-label="epoch: 0; f1: 0.452961672474; language: EN; fold: 2" role="graphics-symbol" aria-roledescription="point" transform="translate(0,271.11181501425403)" d="M2.739,0A2.739,2.739,0,1,1,-2.739,0A2.739,2.739,0,1,1,2.739,0" fill="#4c78a8" stroke-width="2" stroke-dasharray="2,1" opacity="1"/><path aria-label="epoch: 1; f1: 0.452961672474; language: EN; fold: 2" role="graphics-symbol" aria-roledescription="point" transform="translate(200,271.11181501425403)" d="M2.739,0A2.739,2.739,0,1,1,-2.739,0A2.739,2.739,0,1,1,2.739,0" fill="#4c78a8" stroke-width="2" stroke-dasharray="2,1" opacity="1"/><path aria-label="epoch: 2; f1: 0.452961672474; language: EN; fold: 2" role="graphics-symbol" aria-roledescription="point" transform="translate(400,271.11181501425403)" d="M2.739,0A2.739,2.739,0,1,1,-2.739,0A2.739,2.739,0,1,1,2.739,0" fill="#4c78a8" stroke-width="2" stroke-dasharray="2,1" opacity="1"/><path aria-label="epoch: 3; f1: 0.452961672474; language: EN; fold: 2" role="graphics-symbol" aria-roledescription="point" transform="translate(600,271.11181501425403)" d="M2.739,0A2.739,2.739,0,1,1,-2.739,0A2.739,2.739,0,1,1,2.739,0" fill="#4c78a8" stroke-width="2" stroke-dasharray="2,1" opacity="1"/><path aria-label="epoch: 0; f1: 0.452173913043; language: EN; fold: 3" role="graphics-symbol" aria-roledescription="point" transform="translate(0,271.5415019762846)" d="M2.739,0A2.739,2.739,0,1,1,-2.739,0A2.739,2.739,0,1,1,2.739,0" fill="#4c78a8" stroke-width="2" stroke-dasharray="1,1" opacity="1"/><path aria-label="epoch: 1; f1: 0.452173913043; language: EN; fold: 3" role="graphics-symbol" aria-roledescription="point" transform="translate(200,271.5415019762846)" d="M2.739,0A2.739,2.739,0,1,1,-2.739,0A2.739,2.739,0,1,1,2.739,0" fill="#4c78a8" stroke-width="2" stroke-dasharray="1,1" opacity="1"/><path aria-label="epoch: 2; f1: 0.452173913043; language: EN; fold: 3" role="graphics-symbol" aria-roledescription="point" transform="translate(400,271.5415019762846)" d="M2.739,0A2.739,2.739,0,1,1,-2.739,0A2.739,2.739,0,1,1,2.739,0" fill="#4c78a8" stroke-width="2" stroke-dasharray="1,1" opacity="1"/><path aria-label="epoch: 3; f1: 0.452173913043; language: EN; fold: 3" role="graphics-symbol" aria-roledescription="point" transform="translate(600,271.5415019762846)" d="M2.739,0A2.739,2.739,0,1,1,-2.739,0A2.739,2.739,0,1,1,2.739,0" fill="#4c78a8" stroke-width="2" stroke-dasharray="1,1" opacity="1"/><path aria-label="epoch: 0; f1: 0.452961672474; language: EN; fold: 4" role="graphics-symbol" aria-roledescription="point" transform="translate(0,271.11181501425403)" d="M2.739,0A2.739,2.739,0,1,1,-2.739,0A2.739,2.739,0,1,1,2.739,0" fill="#4c78a8" stroke-width="2" stroke-dasharray="1,2,4,2" opacity="1"/><path aria-label="epoch: 1; f1: 0.452961672474; language: EN; fold: 4" role="graphics-symbol" aria-roledescription="point" transform="translate(200,271.11181501425403)" d="M2.739,0A2.739,2.739,0,1,1,-2.739,0A2.739,2.739,0,1,1,2.739,0" fill="#4c78a8" stroke-width="2" stroke-dasharray="1,2,4,2" opacity="1"/><path aria-label="epoch: 2; f1: 0.452961672474; language: EN; fold: 4" role="graphics-symbol" aria-roledescription="point" transform="translate(400,271.11181501425403)" d="M2.739,0A2.739,2.739,0,1,1,-2.739,0A2.739,2.739,0,1,1,2.739,0" fill="#4c78a8" stroke-width="2" stroke-dasharray="1,2,4,2" opacity="1"/><path aria-label="epoch: 3; f1: 0.452961672474; language: EN; fold: 4" role="graphics-symbol" aria-roledescription="point" transform="translate(600,271.11181501425403)" d="M2.739,0A2.739,2.739,0,1,1,-2.739,0A2.739,2.739,0,1,1,2.739,0" fill="#4c78a8" stroke-width="2" stroke-dasharray="1,2,4,2" opacity="1"/><path aria-label="epoch: 0; f1: 0.462519936204; language: ES; fold: 0" role="graphics-symbol" aria-roledescription="point" transform="translate(0,265.89821661592)" d="M2.739,0A2.739,2.739,0,1,1,-2.739,0A2.739,2.739,0,1,1,2.739,0" fill="#f58518" stroke-width="2" stroke-dasharray="1,0" opacity="1"/><path aria-label="epoch: 1; f1: 0.462519936204; language: ES; fold: 0" role="graphics-symbol" aria-roledescription="point" transform="translate(200,265.89821661592)" d="M2.739,0A2.739,2.739,0,1,1,-2.739,0A2.739,2.739,0,1,1,2.739,0" fill="#f58518" stroke-width="2" stroke-dasharray="1,0" opacity="1"/><path aria-label="epoch: 2; f1: 0.462519936204; language: ES; fold: 0" role="graphics-symbol" aria-roledescription="point" transform="translate(400,265.89821661592)" d="M2.739,0A2.739,2.739,0,1,1,-2.739,0A2.739,2.739,0,1,1,2.739,0" fill="#f58518" stroke-width="2" stroke-dasharray="1,0" opacity="1"/><path aria-label="epoch: 3; f1: 0.462519936204; language: ES; fold: 0" role="graphics-symbol" aria-roledescription="point" transform="translate(600,265.89821661592)" d="M2.739,0A2.739,2.739,0,1,1,-2.739,0A2.739,2.739,0,1,1,2.739,0" fill="#f58518" stroke-width="2" stroke-dasharray="1,0" opacity="1"/><path aria-label="epoch: 0; f1: 0.46178343949; language: ES; fold: 1" role="graphics-symbol" aria-roledescription="point" transform="translate(0,266.2999420961205)" d="M2.739,0A2.739,2.739,0,1,1,-2.739,0A2.739,2.739,0,1,1,2.739,0" fill="#f58518" stroke-width="2" stroke-dasharray="4,2" opacity="1"/><path aria-label="epoch: 1; f1: 0.46178343949; language: ES; fold: 1" role="graphics-symbol" aria-roledescription="point" transform="translate(200,266.2999420961205)" d="M2.739,0A2.739,2.739,0,1,1,-2.739,0A2.739,2.739,0,1,1,2.739,0" fill="#f58518" stroke-width="2" stroke-dasharray="4,2" opacity="1"/><path aria-label="epoch: 2; f1: 0.46178343949; language: ES; fold: 1" role="graphics-symbol" aria-roledescription="point" transform="translate(400,266.2999420961205)" d="M2.739,0A2.739,2.739,0,1,1,-2.739,0A2.739,2.739,0,1,1,2.739,0" fill="#f58518" stroke-width="2" stroke-dasharray="4,2" opacity="1"/><path aria-label="epoch: 3; f1: 0.46178343949; language: ES; fold: 1" role="graphics-symbol" aria-roledescription="point" transform="translate(600,266.2999420961205)" d="M2.739,0A2.739,2.739,0,1,1,-2.739,0A2.739,2.739,0,1,1,2.739,0" fill="#f58518" stroke-width="2" stroke-dasharray="4,2" opacity="1"/><path aria-label="epoch: 0; f1: 0.46178343949; language: ES; fold: 2" role="graphics-symbol" aria-roledescription="point" transform="translate(0,266.2999420961205)" d="M2.739,0A2.739,2.739,0,1,1,-2.739,0A2.739,2.739,0,1,1,2.739,0" fill="#f58518" stroke-width="2" stroke-dasharray="2,1" opacity="1"/><path aria-label="epoch: 1; f1: 0.46178343949; language: ES; fold: 2" role="graphics-symbol" aria-roledescription="point" transform="translate(200,266.2999420961205)" d="M2.739,0A2.739,2.739,0,1,1,-2.739,0A2.739,2.739,0,1,1,2.739,0" fill="#f58518" stroke-width="2" stroke-dasharray="2,1" opacity="1"/><path aria-label="epoch: 2; f1: 0.46178343949; language: ES; fold: 2" role="graphics-symbol" aria-roledescription="point" transform="translate(400,266.2999420961205)" d="M2.739,0A2.739,2.739,0,1,1,-2.739,0A2.739,2.739,0,1,1,2.739,0" fill="#f58518" stroke-width="2" stroke-dasharray="2,1" opacity="1"/><path aria-label="epoch: 3; f1: 0.46178343949; language: ES; fold: 2" role="graphics-symbol" aria-roledescription="point" transform="translate(600,266.2999420961205)" d="M2.739,0A2.739,2.739,0,1,1,-2.739,0A2.739,2.739,0,1,1,2.739,0" fill="#f58518" stroke-width="2" stroke-dasharray="2,1" opacity="1"/><path aria-label="epoch: 0; f1: 0.46178343949; language: ES; fold: 3" role="graphics-symbol" aria-roledescription="point" transform="translate(0,266.2999420961205)" d="M2.739,0A2.739,2.739,0,1,1,-2.739,0A2.739,2.739,0,1,1,2.739,0" fill="#f58518" stroke-width="2" stroke-dasharray="1,1" opacity="1"/><path aria-label="epoch: 1; f1: 0.46178343949; language: ES; fold: 3" role="graphics-symbol" aria-roledescription="point" transform="translate(200,266.2999420961205)" d="M2.739,0A2.739,2.739,0,1,1,-2.739,0A2.739,2.739,0,1,1,2.739,0" fill="#f58518" stroke-width="2" stroke-dasharray="1,1" opacity="1"/><path aria-label="epoch: 2; f1: 0.46178343949; language: ES; fold: 3" role="graphics-symbol" aria-roledescription="point" transform="translate(400,266.2999420961205)" d="M2.739,0A2.739,2.739,0,1,1,-2.739,0A2.739,2.739,0,1,1,2.739,0" fill="#f58518" stroke-width="2" stroke-dasharray="1,1" opacity="1"/><path aria-label="epoch: 3; f1: 0.46178343949; language: ES; fold: 3" role="graphics-symbol" aria-roledescription="point" transform="translate(600,266.2999420961205)" d="M2.739,0A2.739,2.739,0,1,1,-2.739,0A2.739,2.739,0,1,1,2.739,0" fill="#f58518" stroke-width="2" stroke-dasharray="1,1" opacity="1"/><path aria-label="epoch: 0; f1: 0.46178343949; language: ES; fold: 4" role="graphics-symbol" aria-roledescription="point" transform="translate(0,266.2999420961205)" d="M2.739,0A2.739,2.739,0,1,1,-2.739,0A2.739,2.739,0,1,1,2.739,0" fill="#f58518" stroke-width="2" stroke-dasharray="1,2,4,2" opacity="1"/><path aria-label="epoch: 1; f1: 0.46178343949; language: ES; fold: 4" role="graphics-symbol" aria-roledescription="point" transform="translate(200,266.2999420961205)" d="M2.739,0A2.739,2.739,0,1,1,-2.739,0A2.739,2.739,0,1,1,2.739,0" fill="#f58518" stroke-width="2" stroke-dasharray="1,2,4,2" opacity="1"/><path aria-label="epoch: 2; f1: 0.46178343949; language: ES; fold: 4" role="graphics-symbol" aria-roledescription="point" transform="translate(400,266.2999420961205)" d="M2.739,0A2.739,2.739,0,1,1,-2.739,0A2.739,2.739,0,1,1,2.739,0" fill="#f58518" stroke-width="2" stroke-dasharray="1,2,4,2" opacity="1"/><path aria-label="epoch: 3; f1: 0.46178343949; language: ES; fold: 4" role="graphics-symbol" aria-roledescription="point" transform="translate(600,266.2999420961205)" d="M2.739,0A2.739,2.739,0,1,1,-2.739,0A2.739,2.739,0,1,1,2.739,0" fill="#f58518" stroke-width="2" stroke-dasharray="1,2,4,2" opacity="1"/><path aria-label="epoch: 0; f1: 0.468641114983; language: IT; fold: 0" role="graphics-symbol" aria-roledescription="point" transform="translate(0,262.5593918276845)" d="M2.739,0A2.739,2.739,0,1,1,-2.739,0A2.739,2.739,0,1,1,2.739,0" fill="#e45756" stroke-width="2" stroke-dasharray="1,0" opacity="1"/><path aria-label="epoch: 1; f1: 0.468641114983; language: IT; fold: 0" role="graphics-symbol" aria-roledescription="point" transform="translate(200,262.5593918276845)" d="M2.739,0A2.739,2.739,0,1,1,-2.739,0A2.739,2.739,0,1,1,2.739,0" fill="#e45756" stroke-width="2" stroke-dasharray="1,0" opacity="1"/><path aria-label="epoch: 2; f1: 0.468641114983; language: IT; fold: 0" role="graphics-symbol" aria-roledescription="point" transform="translate(400,262.5593918276845)" d="M2.739,0A2.739,2.739,0,1,1,-2.739,0A2.739,2.739,0,1,1,2.739,0" fill="#e45756" stroke-width="2" stroke-dasharray="1,0" opacity="1"/><path aria-label="epoch: 3; f1: 0.468641114983; language: IT; fold: 0" role="graphics-symbol" aria-roledescription="point" transform="translate(600,262.5593918276845)" d="M2.739,0A2.739,2.739,0,1,1,-2.739,0A2.739,2.739,0,1,1,2.739,0" fill="#e45756" stroke-width="2" stroke-dasharray="1,0" opacity="1"/><path aria-label="epoch: 0; f1: 0.468641114983; language: IT; fold: 1" role="graphics-symbol" aria-roledescription="point" transform="translate(0,262.5593918276845)" d="M2.739,0A2.739,2.739,0,1,1,-2.739,0A2.739,2.739,0,1,1,2.739,0" fill="#e45756" stroke-width="2" stroke-dasharray="4,2" opacity="1"/><path aria-label="epoch: 1; f1: 0.468641114983; language: IT; fold: 1" role="graphics-symbol" aria-roledescription="point" transform="translate(200,262.5593918276845)" d="M2.739,0A2.739,2.739,0,1,1,-2.739,0A2.739,2.739,0,1,1,2.739,0" fill="#e45756" stroke-width="2" stroke-dasharray="4,2" opacity="1"/><path aria-label="epoch: 2; f1: 0.468641114983; language: IT; fold: 1" role="graphics-symbol" aria-roledescription="point" transform="translate(400,262.5593918276845)" d="M2.739,0A2.739,2.739,0,1,1,-2.739,0A2.739,2.739,0,1,1,2.739,0" fill="#e45756" stroke-width="2" stroke-dasharray="4,2" opacity="1"/><path aria-label="epoch: 3; f1: 0.468641114983; language: IT; fold: 1" role="graphics-symbol" aria-roledescription="point" transform="translate(600,262.5593918276845)" d="M2.739,0A2.739,2.739,0,1,1,-2.739,0A2.739,2.739,0,1,1,2.739,0" fill="#e45756" stroke-width="2" stroke-dasharray="4,2" opacity="1"/><path aria-label="epoch: 0; f1: 0.468641114983; language: IT; fold: 2" role="graphics-symbol" aria-roledescription="point" transform="translate(0,262.5593918276845)" d="M2.739,0A2.739,2.739,0,1,1,-2.739,0A2.739,2.739,0,1,1,2.739,0" fill="#e45756" stroke-width="2" stroke-dasharray="2,1" opacity="1"/><path aria-label="epoch: 1; f1: 0.468641114983; language: IT; fold: 2" role="graphics-symbol" aria-roledescription="point" transform="translate(200,262.5593918276845)" d="M2.739,0A2.739,2.739,0,1,1,-2.739,0A2.739,2.739,0,1,1,2.739,0" fill="#e45756" stroke-width="2" stroke-dasharray="2,1" opacity="1"/><path aria-label="epoch: 2; f1: 0.468641114983; language: IT; fold: 2" role="graphics-symbol" aria-roledescription="point" transform="translate(400,262.5593918276845)" d="M2.739,0A2.739,2.739,0,1,1,-2.739,0A2.739,2.739,0,1,1,2.739,0" fill="#e45756" stroke-width="2" stroke-dasharray="2,1" opacity="1"/><path aria-label="epoch: 3; f1: 0.468641114983; language: IT; fold: 2" role="graphics-symbol" aria-roledescription="point" transform="translate(600,262.5593918276845)" d="M2.739,0A2.739,2.739,0,1,1,-2.739,0A2.739,2.739,0,1,1,2.739,0" fill="#e45756" stroke-width="2" stroke-dasharray="2,1" opacity="1"/><path aria-label="epoch: 0; f1: 0.469458987784; language: IT; fold: 3" role="graphics-symbol" aria-roledescription="point" transform="translate(0,262.1132793907663)" d="M2.739,0A2.739,2.739,0,1,1,-2.739,0A2.739,2.739,0,1,1,2.739,0" fill="#e45756" stroke-width="2" stroke-dasharray="1,1" opacity="1"/><path aria-label="epoch: 1; f1: 0.469458987784; language: IT; fold: 3" role="graphics-symbol" aria-roledescription="point" transform="translate(200,262.1132793907663)" d="M2.739,0A2.739,2.739,0,1,1,-2.739,0A2.739,2.739,0,1,1,2.739,0" fill="#e45756" stroke-width="2" stroke-dasharray="1,1" opacity="1"/><path aria-label="epoch: 2; f1: 0.469458987784; language: IT; fold: 3" role="graphics-symbol" aria-roledescription="point" transform="translate(400,262.1132793907663)" d="M2.739,0A2.739,2.739,0,1,1,-2.739,0A2.739,2.739,0,1,1,2.739,0" fill="#e45756" stroke-width="2" stroke-dasharray="1,1" opacity="1"/><path aria-label="epoch: 3; f1: 0.469458987784; language: IT; fold: 3" role="graphics-symbol" aria-roledescription="point" transform="translate(600,262.1132793907663)" d="M2.739,0A2.739,2.739,0,1,1,-2.739,0A2.739,2.739,0,1,1,2.739,0" fill="#e45756" stroke-width="2" stroke-dasharray="1,1" opacity="1"/><path aria-label="epoch: 0; f1: 0.468641114983; language: IT; fold: 4" role="graphics-symbol" aria-roledescription="point" transform="translate(0,262.5593918276845)" d="M2.739,0A2.739,2.739,0,1,1,-2.739,0A2.739,2.739,0,1,1,2.739,0" fill="#e45756" stroke-width="2" stroke-dasharray="1,2,4,2" opacity="1"/><path aria-label="epoch: 1; f1: 0.468641114983; language: IT; fold: 4" role="graphics-symbol" aria-roledescription="point" transform="translate(200,262.5593918276845)" d="M2.739,0A2.739,2.739,0,1,1,-2.739,0A2.739,2.739,0,1,1,2.739,0" fill="#e45756" stroke-width="2" stroke-dasharray="1,2,4,2" opacity="1"/><path aria-label="epoch: 2; f1: 0.468641114983; language: IT; fold: 4" role="graphics-symbol" aria-roledescription="point" transform="translate(400,262.5593918276845)" d="M2.739,0A2.739,2.739,0,1,1,-2.739,0A2.739,2.739,0,1,1,2.739,0" fill="#e45756" stroke-width="2" stroke-dasharray="1,2,4,2" opacity="1"/><path aria-label="epoch: 3; f1: 0.468641114983; language: IT; fold: 4" role="graphics-symbol" aria-roledescription="point" transform="translate(600,262.5593918276845)" d="M2.739,0A2.739,2.739,0,1,1,-2.739,0A2.739,2.739,0,1,1,2.739,0" fill="#e45756" stroke-width="2" stroke-dasharray="1,2,4,2" opacity="1"/></g><g class="mark-group role-legend" role="graphics-symbol" aria-roledescription="legend" aria-label="Symbol legend titled 'language' for fill color and stroke color with 3 values: EN, ES, IT"><g transform="translate(620,0)"><path class="background" aria-hidden="true" d="M0,0h49v61h-49Z" pointer-events="none"/><g><g class="mark-group role-legend-entry"><g transform="translate(0,16)"><path class="background" aria-hidden="true" d="M0,0h0v0h0Z" pointer-events="none"/><g><g class="mark-group role-scope" role="graphics-object" aria-roledescription="group mark container"><g transform="translate(0,0)"><path class="background" aria-hidden="true" d="M0,0h29.8916015625v12.5h-29.8916015625Z" pointer-events="none" opacity="1"/><g><g class="mark-symbol role-legend-symbol" pointer-events="none"><path transform="translate(6,6)" d="M5,0A5,5,0,1,1,-5,0A5,5,0,1,1,5,0" fill="#4c78a8" stroke="#4c78a8" stroke-width="1.5" opacity="1"/></g><g class="mark-text role-legend-label" pointer-events="none"><text text-anchor="start" transform="translate(16,9)" font-family="sans-serif" font-size="10px" fill="#000" opacity="1">EN</text></g></g><path class="foreground" aria-hidden="true" d="" pointer-events="none" display="none"/></g><g transform="translate(0,16)"><path class="background" aria-hidden="true" d="M0,0h29.8916015625v12.5h-29.8916015625Z" pointer-events="none" opacity="1"/><g><g class="mark-symbol role-legend-symbol" pointer-events="none"><path transform="translate(6,6)" d="M5,0A5,5,0,1,1,-5,0A5,5,0,1,1,5,0" fill="#f58518" stroke="#f58518" stroke-width="1.5" opacity="1"/></g><g class="mark-text role-legend-label" pointer-events="none"><text text-anchor="start" transform="translate(16,9)" font-family="sans-serif" font-size="10px" fill="#000" opacity="1">ES</text></g></g><path class="foreground" aria-hidden="true" d="" pointer-events="none" display="none"/></g><g transform="translate(0,32)"><path class="background" aria-hidden="true" d="M0,0h29.8916015625v12.5h-29.8916015625Z" pointer-events="none" opacity="1"/><g><g class="mark-symbol role-legend-symbol" pointer-events="none"><path transform="translate(6,6)" d="M5,0A5,5,0,1,1,-5,0A5,5,0,1,1,5,0" fill="#e45756" stroke="#e45756" stroke-width="1.5" opacity="1"/></g><g class="mark-text role-legend-label" pointer-events="none"><text text-anchor="start" transform="translate(16,9)" font-family="sans-serif" font-size="10px" fill="#000" opacity="1">IT</text></g></g><path class="foreground" aria-hidden="true" d="" pointer-events="none" display="none"/></g></g></g><path class="foreground" aria-hidden="true" d="" pointer-events="none" display="none"/></g></g><g class="mark-text role-legend-title" pointer-events="none"><text text-anchor="start" transform="translate(0,9)" font-family="sans-serif" font-size="11px" font-weight="bold" fill="#000" opacity="1">language</text></g></g><path class="foreground" aria-hidden="true" d="" pointer-events="none" display="none"/></g></g><g class="mark-group role-legend" role="graphics-symbol" aria-roledescription="legend" aria-label="Symbol legend titled 'fold' for strokeDash with 5 values: 0, 1, 2, 3, 4"><g transform="translate(620,69)"><path class="background" aria-hidden="true" d="M0,0h22v93h-22Z" pointer-events="none"/><g><g class="mark-group role-legend-entry"><g transform="translate(0,16)"><path class="background" aria-hidden="true" d="M0,0h0v0h0Z" pointer-events="none"/><g><g class="mark-group role-scope" role="graphics-object" aria-roledescription="group mark container"><g transform="translate(0,0)"><path class="background" aria-hidden="true" d="M0,0h21.5615234375v12.5h-21.5615234375Z" pointer-events="none" opacity="1"/><g><g class="mark-symbol role-legend-symbol" pointer-events="none"><path transform="translate(6,6)" d="M5,0A5,5,0,1,1,-5,0A5,5,0,1,1,5,0" fill="black" fill-opacity="1" stroke-width="1.5" stroke-dasharray="1,0" opacity="1"/></g><g class="mark-text role-legend-label" pointer-events="none"><text text-anchor="start" transform="translate(16,9)" font-family="sans-serif" font-size="10px" fill="#000" opacity="1">0</text></g></g><path class="foreground" aria-hidden="true" d="" pointer-events="none" display="none"/></g><g transform="translate(0,16)"><path class="background" aria-hidden="true" d="M0,0h21.5615234375v12.5h-21.5615234375Z" pointer-events="none" opacity="1"/><g><g class="mark-symbol role-legend-symbol" pointer-events="none"><path transform="translate(6,6)" d="M5,0A5,5,0,1,1,-5,0A5,5,0,1,1,5,0" fill="black" fill-opacity="1" stroke-width="1.5" stroke-dasharray="4,2" opacity="1"/></g><g class="mark-text role-legend-label" pointer-events="none"><text text-anchor="start" transform="translate(16,9)" font-family="sans-serif" font-size="10px" fill="#000" opacity="1">1</text></g></g><path class="foreground" aria-hidden="true" d="" pointer-events="none" display="none"/></g><g transform="translate(0,32)"><path class="background" aria-hidden="true" d="M0,0h21.5615234375v12.5h-21.5615234375Z" pointer-events="none" opacity="1"/><g><g class="mark-symbol role-legend-symbol" pointer-events="none"><path transform="translate(6,6)" d="M5,0A5,5,0,1,1,-5,0A5,5,0,1,1,5,0" fill="black" fill-opacity="1" stroke-width="1.5" stroke-dasharray="2,1" opacity="1"/></g><g class="mark-text role-legend-label" pointer-events="none"><text text-anchor="start" transform="translate(16,9)" font-family="sans-serif" font-size="10px" fill="#000" opacity="1">2</text></g></g><path class="foreground" aria-hidden="true" d="" pointer-events="none" display="none"/></g><g transform="translate(0,48)"><path class="background" aria-hidden="true" d="M0,0h21.5615234375v12.5h-21.5615234375Z" pointer-events="none" opacity="1"/><g><g class="mark-symbol role-legend-symbol" pointer-events="none"><path transform="translate(6,6)" d="M5,0A5,5,0,1,1,-5,0A5,5,0,1,1,5,0" fill="black" fill-opacity="1" stroke-width="1.5" stroke-dasharray="1,1" opacity="1"/></g><g class="mark-text role-legend-label" pointer-events="none"><text text-anchor="start" transform="translate(16,9)" font-family="sans-serif" font-size="10px" fill="#000" opacity="1">3</text></g></g><path class="foreground" aria-hidden="true" d="" pointer-events="none" display="none"/></g><g transform="translate(0,64)"><path class="background" aria-hidden="true" d="M0,0h21.5615234375v12.5h-21.5615234375Z" pointer-events="none" opacity="1"/><g><g class="mark-symbol role-legend-symbol" pointer-events="none"><path transform="translate(6,6)" d="M5,0A5,5,0,1,1,-5,0A5,5,0,1,1,5,0" fill="black" fill-opacity="1" stroke-width="1.5" stroke-dasharray="1,2,4,2" opacity="1"/></g><g class="mark-text role-legend-label" pointer-events="none"><text text-anchor="start" transform="translate(16,9)" font-family="sans-serif" font-size="10px" fill="#000" opacity="1">4</text></g></g><path class="foreground" aria-hidden="true" d="" pointer-events="none" display="none"/></g></g></g><path class="foreground" aria-hidden="true" d="" pointer-events="none" display="none"/></g></g><g class="mark-text role-legend-title" pointer-events="none"><text text-anchor="start" transform="translate(0,9)" font-family="sans-serif" font-size="11px" font-weight="bold" fill="#000" opacity="1">fold</text></g></g><path class="foreground" aria-hidden="true" d="" pointer-events="none" display="none"/></g></g><g class="mark-group role-title"><g transform="translate(300,-22)"><path class="background" aria-hidden="true" d="M0,0h0v0h0Z" pointer-events="none"/><g><g class="mark-text role-title-text" role="graphics-symbol" aria-roledescription="title" aria-label="Title text 'F1 by Language'" pointer-events="none"><text text-anchor="middle" transform="translate(0,10)" font-family="sans-serif" font-size="13px" font-weight="bold" fill="#000" opacity="1">F1 by Language</text></g></g><path class="foreground" aria-hidden="true" d="" pointer-events="none" display="none"/></g></g></g><path class="foreground" aria-hidden="true" d="" display="none"/></g></g></g></svg>