<svg xmlns="http://www.w3.org/2000/svg" xmlns:xlink="http://www.w3.org/1999/xlink" version="1.1" class="marks" width="649" height="418" viewBox="0 0 649 418"><rect width="649" height="418" fill="white"/><g fill="none" stroke-miterlimit="10" transform="translate(72,61)"><g class="mark-group role-frame root" role="graphics-object" aria-roledescription="group mark container"><g transform="translate(0,0)"><path class="background" aria-hidden="true" d="M0,0h0v0h0Z"/><g><g class="mark-group role-column-title column-title" role="graphics-object" aria-roledescription="group mark container"><g transform="translate(253,-18)"><path class="background" aria-hidden="true" d="M0,0h0v0h0Z"/><g><g class="mark-group role-title"><g transform="translate(0,-21)"><path class="background" aria-hidden="true" d="M0,0h0v0h0Z" pointer-events="none"/><g><g class="mark-text role-title-text" role="graphics-symbol" aria-roledescription="title" aria-label="Title text 'Language'" pointer-events="none"><text text-anchor="middle" transform="translate(0,9)" font-family="sans-serif" font-size="11px" font-weight="bold" fill="#000" opacity="1">Language</text></g></g><path class="foreground" aria-hidden="true" d="" pointer-events="none" display="none"/></g></g></g><path class="foreground" aria-hidden="true" d="" display="none"/></g></g><g class="mark-group role-row-header row_header" role="graphics-object" aria-roledescription="group mark container"><g transform="translate(-19,0)"><path class="background" aria-hidden="true" d="M0,0h0v300h0Z"/><g><g class="mark-group role-axis" role="graphics-symbol" aria-roledescription="axis" aria-label="Y-axis titled 'Count' for a linear scale with values from 0 to 1,000"><g transform="translate(0.5,0.5)"><path class="background" aria-hidden="true" d="M0,0h0v0h0Z" pointer-events="none"/><g><g class="mark-rule role-axis-tick" pointer-events="none"><line transform="translate(0,300)" x2="-5" y2="0" stroke="#888" stroke-width="1" opacity="1"/><line transform="translate(0,270)" x2="-5" y2="0" stroke="#888" stroke-width="1" opacity="1"/><line transform="translate(0,240)" x2="-5" y2="0" stroke="#888" stroke-width="1" opacity="1"/><line transform="translate(0,210)" x2="-5" y2="0" stroke="#888" stroke-width="1" opacity="1"/><line transform="translate(0,180)" x2="-5" y2="0" stroke="#888" stroke-width="1" opacity="1"/><line transform="translate(0,150)" x2="-5" y2="0" stroke="#888" stroke-width="1" opacity="1"/><line transform="translate(0,120)" x2="-5" y2="0" stroke="#888" stroke-width="1" opacity="1"/><line transform="translate(0,90)" x2="-5" y2="0" stroke="#888" stroke-width="1" opacity="1"/><line transform="translate(0,60)" x2="-5" y2="0" stroke="#888" stroke-width="1" opacity="1"/><line transform="translate(0,30)" x2="-5" y2="0" stroke="#888" stroke-width="1" opacity="1"/><line transform="translate(0,0)" x2="-5" y2="0" stroke="#888" stroke-width="1" opacity="1"/></g><g class="mark-text role-axis-label" pointer-events="none"><text text-anchor="end" transform="translate(-7,303)" font-family="sans-serif" font-size="10px" fill="#000" opacity="1">0</text><text text-anchor="end" transform="translate(-7,273)" font-family="sans-serif" font-size="10px" fill="#000" opacity="1">100</text><text text-anchor="end" transform="translate(-7,243)" font-family="sans-serif" font-size="10px" fill="#000" opacity="1">200</text><text text-anchor="end" transform="translate(-7,213)" font-family="sans-serif" font-size="10px" fill="#000" opacity="1">300</text><text text-anchor="end" transform="translate(-7,183)" font-family="sans-serif" font-size="10px" fill="#000" opacity="1">400</text><text text-anchor="end" transform="translate(-7,153)" font-family="sans-serif" font-size="10px" fill="#000" opacity="1">500</text><text text-anchor="end" transform="translate(-7,123)" font-family="sans-serif" font-size="10px" fill="#000" opacity="1">600</text><text text-anchor="end" transform="translate(-7,93.00000000000001)" font-family="sans-serif" font-size="10px" fill="#000" opacity="1">700</text><text text-anchor="end" transform="translate(-7,62.999999999999986)" font-family="sans-serif" font-size="10px" fill="#000" opacity="1">800</text><text text-anchor="end" transform="translate(-7,32.99999999999999)" font-family="sans-serif" font-size="10px" fill="#000" opacity="1">900</text><text text-anchor="end" transform="translate(-7,3)" font-family="sans-serif" font-size="10px" fill="#000" opacity="1">1,000</text></g><g class="mark-rule role-axis-domain" pointer-events="none"><line transform="translate(0,300)" x2="0" y2="-300" stroke="#888" stroke-width="1" opacity="1"/></g><g class="mark-text role-axis-title" pointer-events="none"><text text-anchor="middle" transform="translate(-36.0244140625,150) rotate(-90) translate(0,-2)" font-family="sans-serif" font-size="11px" font-weight="bold" fill="#000" opacity="1">Count</text></g></g><path class="foreground" aria-hidden="true" d="" pointer-events="none" display="none"/></g></g></g><path class="foreground" aria-hidden="true" d="" display="none"/></g></g><g class="mark-group role-column-footer column_footer" role="graphics-object" aria-roledescription="group mark container"><g transform="translate(0,300)"><path class="background" aria-hidden="true" d="M0,0h120v0h-120Z"/><g><g class="mark-group role-axis" role="graphics-symbol" aria-roledescription="axis" aria-label="X-axis titled 'Label' for a discrete scale with 2 values: 0, 1"><g transform="translate(0.5,0.5)"><path class="background" aria-hidden="true" d="M0,0h0v0h0Z" pointer-events="none"/><g><g class="mark-rule role-axis-tick" pointer-events="none"><line transform="translate(30,0)" x2="0" y2="5" stroke="#888" stroke-width="1" opacity="1"/><line transform="translate(90,0)" x2="0" y2="5" stroke="#888" stroke-width="1" opacity="1"/></g><g class="mark-text role-axis-label" pointer-events="none"><text text-anchor="middle" transform="translate(29.5,15)" font-family="sans-serif" font-size="10px" fill="#000" opacity="1">0</text><text text-anchor="middle" transform="translate(89.5,15)" font-family="sans-serif" font-size="10px" fill="#000" opacity="1">1</text></g><g class="mark-rule role-axis-domain" pointer-events="none"><line transform="translate(0,0)" x2="120" y2="0" stroke="#888" stroke-width="1" opacity="1"/></g><g class="mark-text role-axis-title" pointer-events="none"><text text-anchor="middle" transform="translate(60,30)" font-family="sans-serif" font-size="11px" font-weight="bold" fill="#000" opacity="1">Label</text></g></g><path class="foreground" aria-hidden="true" d="" pointer-events="none" display="none"/></g></g><g class="mark-group role-title"><g transform="translate(60,42)"><path class="background" aria-hidden="true" d="M0,0h0v0h0Z" pointer-events="none"/><g><g class="mark-text role-title-text" role="graphics-symbol" aria-roledescription="title" aria-label="Title text 'en'" pointer-events="none"><text text-anchor="middle" transform="translate(0,8)" font-family="sans-serif" font-size="10px" fill="#000" opacity="1">en</text></g></g><path class="foreground" aria-hidden="true" d="" pointer-events="none" display="none"/></g></g></g><path class="foreground" aria-hidden="true" d="" display="none"/></g><g transform="translate(190,300)"><path class="background" aria-hidden="true" d="M0,0h120v0h-120Z"/><g><g class="mark-group role-axis" role="graphics-symbol" aria-roledescription="axis" aria-label="X-axis titled 'Label' for a discrete scale with 2 values: 0, 1"><g transform="translate(0.5,0.5)"><path class="background" aria-hidden="true" d="M0,0h0v0h0Z" pointer-events="none"/><g><g class="mark-rule role-axis-tick" pointer-events="none"><line transform="translate(30,0)" x2="0" y2="5" stroke="#888" stroke-width="1" opacity="1"/><line transform="translate(90,0)" x2="0" y2="5" stroke="#888" stroke-width="1" opacity="1"/></g><g class="mark-text role-axis-label" pointer-events="none"><text text-anchor="middle" transform="translate(29.5,15)" font-family="sans-serif" font-size="10px" fill="#000" opacity="1">0</text><text text-anchor="middle" transform="translate(89.5,15)" font-family="sans-serif" font-size="10px" fill="#000" opacity="1">1</text></g><g class="mark-rule role-axis-domain" pointer-events="none"><line transform="translate(0,0)" x2="120" y2="0" stroke="#888" stroke-width="1" opacity="1"/></g><g class="mark-text role-axis-title" pointer-events="none"><text text-anchor="middle" transform="translate(60,30)" font-family="sans-serif" font-size="11px" font-weight="bold" fill="#000" opacity="1">Label</text></g></g><path class="foreground" aria-hidden="true" d="" pointer-events="none" display="none"/></g></g><g class="mark-group role-title"><g transform="translate(60,42)"><path class="background" aria-hidden="true" d="M0,0h0v0h0Z" pointer-events="none"/><g><g class="mark-text role-title-text" role="graphics-symbol" aria-roledescription="title" aria-label="Title text 'es'" pointer-events="none"><text text-anchor="middle" transform="translate(0,8)" font-family="sans-serif" font-size="10px" fill="#000" opacity="1">es</text></g></g><path class="foreground" aria-hidden="true" d="" pointer-events="none" display="none"/></g></g></g><path class="foreground" aria-hidden="true" d="" display="none"/></g><g transform="translate(380,300)"><path class="background" aria-hidden="true" d="M0,0h120v0h-120Z"/><g><g class="mark-group role-axis" role="graphics-symbol" aria-roledescription="axis" aria-label="X-axis titled 'Label' for a discrete scale with 2 values: 0, 1"><g transform="translate(0.5,0.5)"><path class="background" aria-hidden="true" d="M0,0h0v0h0Z" pointer-events="none"/><g><g class="mark-rule role-axis-tick" pointer-events="none"><line transform="translate(30,0)" x2="0" y2="5" stroke="#888" stroke-width="1" opacity="1"/><line transform="translate(90,0)" x2="0" y2="5" stroke="#888" stroke-width="1" opacity="1"/></g><g class="mark-text role-axis-label" pointer-events="none"><text text-anchor="middle" transform="translate(29.5,15)" font-family="sans-serif" font-size="10px" fill="#000" opacity="1">0</text><text text-anchor="middle" transform="translate(89.5,15)" font-family="sans-serif" font-size="10px" fill="#000" opacity="1">1</text></g><g class="mark-rule role-axis-domain" pointer-events="none"><line transform="translate(0,0)" x2="120" y2="0" stroke="#888" stroke-width="1" opacity="1"/></g><g class="mark-text role-axis-title" pointer-events="none"><text text-anchor="middle" transform="translate(60,30)" font-family="sans-serif" font-size="11px" font-weight="bold" fill="#000" opacity="1">Label</text></g></g><path class="foreground" aria-hidden="true" d="" pointer-events="none" display="none"/></g></g><g class="mark-group role-title"><g transform="translate(60,42)"><path class="background" aria-hidden="true" d="M0,0h0v0h0Z" pointer-events="none"/><g><g class="mark-text role-title-text" role="graphics-symbol" aria-roledescription="title" aria-label="Title text 'it'" pointer-events="none"><text text-anchor="middle" transform="translate(0,8)" font-family="sans-serif" font-size="10px" fill="#000" opacity="1">it</text></g></g><path class="foreground" aria-hidden="true" d="" pointer-events="none" display="none"/></g></g></g><path class="foreground" aria-hidden="true" d="" display="none"/></g></g><g class="mark-group role-scope cell" role="graphics-object" aria-roledescription="group mark container"><g transform="translate(0,0)"><path class="background" aria-hidden="true" d="M0,0h120v300h-120Z" fill="#FAFAFA" stroke="#ddd" stroke-width="0"/><g><g class="mark-group role-scope" role="graphics-object" aria-roledescription="group mark container"><g transform="translate(3,18.600000000000016)"><path class="background" aria-hidden="true" d="M3,0L51,0C52.655745073482,0,54,1.344254926518,54,3L54,281.4C54,281.4,54,281.4,54,281.4L0,281.4C0,281.4,0,281.4,0,281.4L0,3C0,1.344254926518,1.344254926518,0,3,0Z"/><g clip-path="url(#clip1)"><g class="mark-group role-scope" role="graphics-object" aria-roledescription="group mark container"><g transform="translate(0,-18.600000000000016)"><path class="background" aria-hidden="true" d="M0,0h54v0h-54Z"/><g><g class="mark-rect role-mark child_layer_0_marks" role="graphics-object" aria-roledescription="rect mark container"><path aria-label="Label: 0; Count: 938; label: 0; Language: en; Total Samples: 938; With Bio: 0" role="graphics-symbol" aria-roledescription="bar" d="M0,18.600000000000016h54v281.4h-54Z" fill="#1f77b4" opacity="0.9"/></g></g><path class="foreground" aria-hidden="true" d="" display="none"/></g></g></g><path class="foreground" aria-hidden="true" d="" display="none"/></g><g transform="translate(63,273.6)"><path class="background" aria-hidden="true" d="M3,0L51,0C52.655745073482,0,54,1.344254926518,54,3L54,26.399999999999977C54,26.399999999999977,54,26.399999999999977,54,26.399999999999977L0,26.399999999999977C0,26.399999999999977,0,26.399999999999977,0,26.399999999999977L0,3C0,1.344254926518,1.344254926518,0,3,0Z"/><g clip-path="url(#clip2)"><g class="mark-group role-scope" role="graphics-object" aria-roledescription="group mark container"><g transform="translate(0,-273.6)"><path class="background" aria-hidden="true" d="M0,0h54v0h-54Z"/><g><g class="mark-rect role-mark child_layer_0_marks" role="graphics-object" aria-roledescription="rect mark container"><path aria-label="Label: 1; Count: 88; label: 1; Language: en; Total Samples: 88; With Bio: 0" role="graphics-symbol" aria-roledescription="bar" d="M0,273.6h54v26.399999999999977h-54Z" fill="#ff7f0e" opacity="0.9"/></g></g><path class="foreground" aria-hidden="true" d="" display="none"/></g></g></g><path class="foreground" aria-hidden="true" d="" display="none"/></g></g><g class="mark-text role-mark child_layer_1_marks" role="graphics-object" aria-roledescription="text mark container"><text aria-label="Label: 0; Count: 938; label: 0; label_text: Count: 938 | Bio: 0; Language: en; Total Samples: 938; With Bio: 0" role="graphics-symbol" aria-roledescription="text mark" text-anchor="middle" transform="translate(30,15.600000000000016)" font-family="sans-serif" font-size="11px" font-weight="bold" fill="#1f77b4">Count: 938 | Bio: 0</text><text aria-label="Label: 1; Count: 88; label: 1; label_text: Count: 88 | Bio: 0; Language: en; Total Samples: 88; With Bio: 0" role="graphics-symbol" aria-roledescription="text mark" text-anchor="middle" transform="translate(90,270.6)" font-family="sans-serif" font-size="11px" font-weight="bold" fill="#ff7f0e">Count: 88 | Bio: 0</text></g><g class="mark-text role-mark child_layer_2_marks" role="graphics-object" aria-roledescription="text mark container"><text aria-label="max_count: 938; label_text: Total: 1,026 | Imb: 0.09" role="graphics-symbol" aria-roledescription="text mark" text-anchor="middle" transform="translate(60,2.6000000000000156)" font-family="sans-serif" font-size="13px" font-weight="bold" fill="black">Total: 1,026 | Imb: 0.09</text></g></g><path class="foreground" aria-hidden="true" d="" display="none"/></g><g transform="translate(190,0)"><path class="background" aria-hidden="true" d="M0,0h120v300h-120Z" fill="#FAFAFA" stroke="#ddd" stroke-width="0"/><g><g class="mark-group role-scope" role="graphics-object" aria-roledescription="group mark container"><g transform="translate(3,77.10000000000001)"><path class="background" aria-hidden="true" d="M3,0L51,0C52.655745073482,0,54,1.344254926518,54,3L54,222.89999999999998C54,222.89999999999998,54,222.89999999999998,54,222.89999999999998L0,222.89999999999998C0,222.89999999999998,0,222.89999999999998,0,222.89999999999998L0,3C0,1.344254926518,1.344254926518,0,3,0Z"/><g clip-path="url(#clip3)"><g class="mark-group role-scope" role="graphics-object" aria-roledescription="group mark container"><g transform="translate(0,-77.10000000000001)"><path class="background" aria-hidden="true" d="M0,0h54v0h-54Z"/><g><g class="mark-rect role-mark child_layer_0_marks" role="graphics-object" aria-roledescription="rect mark container"><path aria-label="Label: 0; Count: 743; label: 0; Language: es; Total Samples: 743; With Bio: 703" role="graphics-symbol" aria-roledescription="bar" d="M0,77.10000000000001h54v222.89999999999998h-54Z" fill="#1f77b4" opacity="0.9"/></g></g><path class="foreground" aria-hidden="true" d="" display="none"/></g></g></g><path class="foreground" aria-hidden="true" d="" display="none"/></g><g transform="translate(63,260.1)"><path class="background" aria-hidden="true" d="M3,0L51,0C52.655745073482,0,54,1.344254926518,54,3L54,39.89999999999998C54,39.89999999999998,54,39.89999999999998,54,39.89999999999998L0,39.89999999999998C0,39.89999999999998,0,39.89999999999998,0,39.89999999999998L0,3C0,1.344254926518,1.344254926518,0,3,0Z"/><g clip-path="url(#clip4)"><g class="mark-group role-scope" role="graphics-object" aria-roledescription="group mark container"><g transform="translate(0,-260.1)"><path class="background" aria-hidden="true" d="M0,0h54v0h-54Z"/><g><g class="mark-rect role-mark child_layer_0_marks" role="graphics-object" aria-roledescription="rect mark container"><path aria-label="Label: 1; Count: 133; label: 1; Language: es; Total Samples: 133; With Bio: 124" role="graphics-symbol" aria-roledescription="bar" d="M0,260.1h54v39.89999999999998h-54Z" fill="#ff7f0e" opacity="0.9"/></g></g><path class="foreground" aria-hidden="true" d="" display="none"/></g></g></g><path class="foreground" aria-hidden="true" d="" display="none"/></g></g><g class="mark-text role-mark child_layer_1_marks" role="graphics-object" aria-roledescription="text mark container"><text aria-label="Label: 0; Count: 743; label: 0; label_text: Count: 743 | Bio: 703; Language: es; Total Samples: 743; With Bio: 703" role="graphics-symbol" aria-roledescription="text mark" text-anchor="middle" transform="translate(30,74.10000000000001)" font-family="sans-serif" font-size="11px" font-weight="bold" fill="#1f77b4">Count: 743 | Bio: 703</text><text aria-label="Label: 1; Count: 133; label: 1; label_text: Count: 133 | Bio: 124; Language: es; Total Samples: 133; With Bio: 124" role="graphics-symbol" aria-roledescription="text mark" text-anchor="middle" transform="translate(90,257.1)" font-family="sans-serif" font-size="11px" font-weight="bold" fill="#ff7f0e">Count: 133 | Bio: 124</text></g><g class="mark-text role-mark child_layer_2_marks" role="graphics-object" aria-roledescription="text mark container"><text aria-label="max_count: 743; label_text: Total: 876 | Imb: 0.18" role="graphics-symbol" aria-roledescription="text mark" text-anchor="middle" transform="translate(60,61.10000000000001)" font-family="sans-serif" font-size="13px" font-weight="bold" fill="black">Total: 876 | Imb: 0.18</text></g></g><path class="foreground" aria-hidden="true" d="" display="none"/></g><g transform="translate(380,0)"><path class="background" aria-hidden="true" d="M0,0h120v300h-120Z" fill="#FAFAFA" stroke="#ddd" stroke-width="0"/><g><g class="mark-group role-scope" role="graphics-object" aria-roledescription="group mark container"><g transform="translate(3,36.3)"><path class="background" aria-hidden="true" d="M3,0L51,0C52.655745073482,0,54,1.344254926518,54,3L54,263.7C54,263.7,54,263.7,54,263.7L0,263.7C0,263.7,0,263.7,0,263.7L0,3C0,1.344254926518,1.344254926518,0,3,0Z"/><g clip-path="url(#clip5)"><g class="mark-group role-scope" role="graphics-object" aria-roledescription="group mark container"><g transform="translate(0,-36.3)"><path class="background" aria-hidden="true" d="M0,0h54v0h-54Z"/><g><g class="mark-rect role-mark child_layer_0_marks" role="graphics-object" aria-roledescription="rect mark container"><path aria-label="Label: 0; Count: 879; label: 0; Language: it; Total Samples: 879; With Bio: 798" role="graphics-symbol" aria-roledescription="bar" d="M0,36.3h54v263.7h-54Z" fill="#1f77b4" opacity="0.9"/></g></g><path class="foreground" aria-hidden="true" d="" display="none"/></g></g></g><path class="foreground" aria-hidden="true" d="" display="none"/></g><g transform="translate(63,237.9)"><path class="background" aria-hidden="true" d="M3,0L51,0C52.655745073482,0,54,1.344254926518,54,3L54,62.099999999999994C54,62.099999999999994,54,62.099999999999994,54,62.099999999999994L0,62.099999999999994C0,62.099999999999994,0,62.099999999999994,0,62.099999999999994L0,3C0,1.344254926518,1.344254926518,0,3,0Z"/><g clip-path="url(#clip6)"><g class="mark-group role-scope" role="graphics-object" aria-roledescription="group mark container"><g transform="translate(0,-237.9)"><path class="background" aria-hidden="true" d="M0,0h54v0h-54Z"/><g><g class="mark-rect role-mark child_layer_0_marks" role="graphics-object" aria-roledescription="rect mark container"><path aria-label="Label: 1; Count: 207; label: 1; Language: it; Total Samples: 207; With Bio: 202" role="graphics-symbol" aria-roledescription="bar" d="M0,237.9h54v62.099999999999994h-54Z" fill="#ff7f0e" opacity="0.9"/></g></g><path class="foreground" aria-hidden="true" d="" display="none"/></g></g></g><path class="foreground" aria-hidden="true" d="" display="none"/></g></g><g class="mark-text role-mark child_layer_1_marks" role="graphics-object" aria-roledescription="text mark container"><text aria-label="Label: 0; Count: 879; label: 0; label_text: Count: 879 | Bio: 798; Language: it; Total Samples: 879; With Bio: 798" role="graphics-symbol" aria-roledescription="text mark" text-anchor="middle" transform="translate(30,33.3)" font-family="sans-serif" font-size="11px" font-weight="bold" fill="#1f77b4">Count: 879 | Bio: 798</text><text aria-label="Label: 1; Count: 207; label: 1; label_text: Count: 207 | Bio: 202; Language: it; Total Samples: 207; With Bio: 202" role="graphics-symbol" aria-roledescription="text mark" text-anchor="middle" transform="translate(90,234.9)" font-family="sans-serif" font-size="11px" font-weight="bold" fill="#ff7f0e">Count: 207 | Bio: 202</text></g><g class="mark-text role-mark child_layer_2_marks" role="graphics-object" aria-roledescription="text mark container"><text aria-label="max_count: 879; label_text: Total: 1,086 | Imb: 0.24" role="graphics-symbol" aria-roledescription="text mark" text-anchor="middle" transform="translate(60,20.299999999999997)" font-family="sans-serif" font-size="13px" font-weight="bold" fill="black">Total: 1,086 | Imb: 0.24</text></g></g><path class="foreground" aria-hidden="true" d="" display="none"/></g></g><g class="mark-group role-legend" role="graphics-symbol" aria-roledescription="legend" aria-label="Symbol legend titled 'Label' for fill color with 2 values: 0, 1"><g transform="translate(543,0)"><path class="background" aria-hidden="true" d="M0,0h29v40h-29Z" pointer-events="none"/><g><g class="mark-group role-legend-entry"><g transform="translate(0,16)"><path class="background" aria-hidden="true" d="M0,0h0v0h0Z" pointer-events="none"/><g><g class="mark-group role-scope" role="graphics-object" aria-roledescription="group mark container"><g transform="translate(0,0)"><path class="background" aria-hidden="true" d="M0,0h21.5615234375v11h-21.5615234375Z" pointer-events="none" opacity="1"/><g><g class="mark-symbol role-legend-symbol" pointer-events="none"><path transform="translate(6,6)" d="M5,0A5,5,0,1,1,-5,0A5,5,0,1,1,5,0" fill="#1f77b4" stroke-width="1.5" opacity="0.9"/></g><g class="mark-text role-legend-label" pointer-events="none"><text text-anchor="start" transform="translate(16,9)" font-family="sans-serif" font-size="10px" fill="#000" opacity="1">0</text></g></g><path class="foreground" aria-hidden="true" d="" pointer-events="none" display="none"/></g><g transform="translate(0,13)"><path class="background" aria-hidden="true" d="M0,0h21.5615234375v11h-21.5615234375Z" pointer-events="none" opacity="1"/><g><g class="mark-symbol role-legend-symbol" pointer-events="none"><path transform="translate(6,6)" d="M5,0A5,5,0,1,1,-5,0A5,5,0,1,1,5,0" fill="#ff7f0e" stroke-width="1.5" opacity="0.9"/></g><g class="mark-text role-legend-label" pointer-events="none"><text text-anchor="start" transform="translate(16,9)" font-family="sans-serif" font-size="10px" fill="#000" opacity="1">1</text></g></g><path class="foreground" aria-hidden="true" d="" pointer-events="none" display="none"/></g></g></g><path class="foreground" aria-hidden="true" d="" pointer-events="none" display="none"/></g></g><g class="mark-text role-legend-title" pointer-events="none"><text text-anchor="start" transform="translate(0,9)" font-family="sans-serif" font-size="11px" font-weight="bold" fill="#000" opacity="1">Label</text></g></g><path class="foreground" aria-hidden="true" d="" pointer-events="none" display="none"/></g></g><g class="mark-group role-title"><g transform="translate(-66.0244140625,-56)"><path class="background" aria-hidden="true" d="M0,0h0v0h0Z" pointer-events="none"/><g><g class="mark-text role-title-text" role="graphics-symbol" aria-roledescription="title" aria-label="Title text 'Label Distribution by Language'" pointer-events="none"><text text-anchor="start" transform="translate(0,10)" font-family="sans-serif" font-size="13px" font-weight="bold" fill="#000" opacity="1">Label Distribution by Language</text></g></g><path class="foreground" aria-hidden="true" d="" pointer-events="none" display="none"/></g></g></g><path class="foreground" aria-hidden="true" d="" display="none"/></g></g></g><defs><clipPath id="clip1"><path d="M3,0L51,0C52.655745073482,0,54,1.344254926518,54,3L54,281.4C54,281.4,54,281.4,54,281.4L0,281.4C0,281.4,0,281.4,0,281.4L0,3C0,1.344254926518,1.344254926518,0,3,0Z"/></clipPath><clipPath id="clip2"><path d="M3,0L51,0C52.655745073482,0,54,1.344254926518,54,3L54,26.399999999999977C54,26.399999999999977,54,26.399999999999977,54,26.399999999999977L0,26.399999999999977C0,26.399999999999977,0,26.399999999999977,0,26.399999999999977L0,3C0,1.344254926518,1.344254926518,0,3,0Z"/></clipPath><clipPath id="clip3"><path d="M3,0L51,0C52.655745073482,0,54,1.344254926518,54,3L54,222.89999999999998C54,222.89999999999998,54,222.89999999999998,54,222.89999999999998L0,222.89999999999998C0,222.89999999999998,0,222.89999999999998,0,222.89999999999998L0,3C0,1.344254926518,1.344254926518,0,3,0Z"/></clipPath><clipPath id="clip4"><path d="M3,0L51,0C52.655745073482,0,54,1.344254926518,54,3L54,39.89999999999998C54,39.89999999999998,54,39.89999999999998,54,39.89999999999998L0,39.89999999999998C0,39.89999999999998,0,39.89999999999998,0,39.89999999999998L0,3C0,1.344254926518,1.344254926518,0,3,0Z"/></clipPath><clipPath id="clip5"><path d="M3,0L51,0C52.655745073482,0,54,1.344254926518,54,3L54,263.7C54,263.7,54,263.7,54,263.7L0,263.7C0,263.7,0,263.7,0,263.7L0,3C0,1.344254926518,1.344254926518,0,3,0Z"/></clipPath><clipPath id="clip6"><path d="M3,0L51,0C52.655745073482,0,54,1.344254926518,54,3L54,62.099999999999994C54,62.099999999999994,54,62.099999999999994,54,62.099999999999994L0,62.099999999999994C0,62.099999999999994,0,62.099999999999994,0,62.099999999999994L0,3C0,1.344254926518,1.344254926518,0,3,0Z"/></clipPath></defs></svg>