<svg xmlns="http://www.w3.org/2000/svg" xmlns:xlink="http://www.w3.org/1999/xlink" version="1.1" class="marks" width="646" height="466" viewBox="0 0 646 466"><rect width="646" height="466" fill="white"/><g fill="none" stroke-miterlimit="10" transform="translate(41,27)"><g class="mark-group role-frame root" role="graphics-object" aria-roledescription="group mark container"><g transform="translate(0,0)"><path class="background" aria-hidden="true" d="M0.5,0.5h600v400h-600Z" stroke="#ddd"/><g><g class="mark-group role-axis" aria-hidden="true"><g transform="translate(0.5,0.5)"><path class="background" aria-hidden="true" d="M0,0h0v0h0Z" pointer-events="none"/><g><g class="mark-rule role-axis-grid" pointer-events="none"><line transform="translate(0,400)" x2="600" y2="0" stroke="#ddd" stroke-width="1" opacity="1"/><line transform="translate(0,350)" x2="600" y2="0" stroke="#ddd" stroke-width="1" opacity="1"/><line transform="translate(0,300)" x2="600" y2="0" stroke="#ddd" stroke-width="1" opacity="1"/><line transform="translate(0,250)" x2="600" y2="0" stroke="#ddd" stroke-width="1" opacity="1"/><line transform="translate(0,200)" x2="600" y2="0" stroke="#ddd" stroke-width="1" opacity="1"/><line transform="translate(0,150)" x2="600" y2="0" stroke="#ddd" stroke-width="1" opacity="1"/><line transform="translate(0,100)" x2="600" y2="0" stroke="#ddd" stroke-width="1" opacity="1"/><line transform="translate(0,50)" x2="600" y2="0" stroke="#ddd" stroke-width="1" opacity="1"/><line transform="translate(0,0)" x2="600" y2="0" stroke="#ddd" stroke-width="1" opacity="1"/></g></g><path class="foreground" aria-hidden="true" d="" pointer-events="none" display="none"/></g></g><g class="mark-group role-axis" role="graphics-symbol" aria-roledescription="axis" aria-label="X-axis titled 'Number of Epochs' for a discrete scale with 7 values: 5, 6, 7, 8, 9, 11, 12"><g transform="translate(0.5,400.5)"><path class="background" aria-hidden="true" d="M0,0h0v0h0Z" pointer-events="none"/><g><g class="mark-rule role-axis-tick" pointer-events="none"><line transform="translate(42,0)" x2="0" y2="5" stroke="#888" stroke-width="1" opacity="1"/><line transform="translate(128,0)" x2="0" y2="5" stroke="#888" stroke-width="1" opacity="1"/><line transform="translate(214,0)" x2="0" y2="5" stroke="#888" stroke-width="1" opacity="1"/><line transform="translate(299,0)" x2="0" y2="5" stroke="#888" stroke-width="1" opacity="1"/><line transform="translate(385,0)" x2="0" y2="5" stroke="#888" stroke-width="1" opacity="1"/><line transform="translate(471,0)" x2="0" y2="5" stroke="#888" stroke-width="1" opacity="1"/><line transform="translate(557,0)" x2="0" y2="5" stroke="#888" stroke-width="1" opacity="1"/></g><g class="mark-text role-axis-label" pointer-events="none"><text text-anchor="end" transform="translate(42.357142857142854,7) rotate(270) translate(0,3)" font-family="sans-serif" font-size="10px" fill="#000" opacity="1">5</text><text text-anchor="end" transform="translate(128.07142857142856,7) rotate(270) translate(0,3)" font-family="sans-serif" font-size="10px" fill="#000" opacity="1">6</text><text text-anchor="end" transform="translate(213.78571428571428,7) rotate(270) translate(0,3)" font-family="sans-serif" font-size="10px" fill="#000" opacity="1">7</text><text text-anchor="end" transform="translate(299.49999999999994,7) rotate(270) translate(0,3)" font-family="sans-serif" font-size="10px" fill="#000" opacity="1">8</text><text text-anchor="end" transform="translate(385.21428571428567,7) rotate(270) translate(0,3)" font-family="sans-serif" font-size="10px" fill="#000" opacity="1">9</text><text text-anchor="end" transform="translate(470.9285714285714,7) rotate(270) translate(0,3)" font-family="sans-serif" font-size="10px" fill="#000" opacity="1">11</text><text text-anchor="end" transform="translate(556.6428571428571,7) rotate(270) translate(0,3)" font-family="sans-serif" font-size="10px" fill="#000" opacity="1">12</text></g><g class="mark-rule role-axis-domain" pointer-events="none"><line transform="translate(0,0)" x2="600" y2="0" stroke="#888" stroke-width="1" opacity="1"/></g><g class="mark-text role-axis-title" pointer-events="none"><text text-anchor="middle" transform="translate(300,31.123046875)" font-family="sans-serif" font-size="11px" font-weight="bold" fill="#000" opacity="1">Number of Epochs</text></g></g><path class="foreground" aria-hidden="true" d="" pointer-events="none" display="none"/></g></g><g class="mark-group role-axis" role="graphics-symbol" aria-roledescription="axis" aria-label="Y-axis titled 'F1 Score' for a linear scale with values from 0.0 to 0.8"><g transform="translate(0.5,0.5)"><path class="background" aria-hidden="true" d="M0,0h0v0h0Z" pointer-events="none"/><g><g class="mark-rule role-axis-tick" pointer-events="none"><line transform="translate(0,400)" x2="-5" y2="0" stroke="#888" stroke-width="1" opacity="1"/><line transform="translate(0,350)" x2="-5" y2="0" stroke="#888" stroke-width="1" opacity="1"/><line transform="translate(0,300)" x2="-5" y2="0" stroke="#888" stroke-width="1" opacity="1"/><line transform="translate(0,250)" x2="-5" y2="0" stroke="#888" stroke-width="1" opacity="1"/><line transform="translate(0,200)" x2="-5" y2="0" stroke="#888" stroke-width="1" opacity="1"/><line transform="translate(0,150)" x2="-5" y2="0" stroke="#888" stroke-width="1" opacity="1"/><line transform="translate(0,100)" x2="-5" y2="0" stroke="#888" stroke-width="1" opacity="1"/><line transform="translate(0,50)" x2="-5" y2="0" stroke="#888" stroke-width="1" opacity="1"/><line transform="translate(0,0)" x2="-5" y2="0" stroke="#888" stroke-width="1" opacity="1"/></g><g class="mark-text role-axis-label" pointer-events="none"><text text-anchor="end" transform="translate(-7,403)" font-family="sans-serif" font-size="10px" fill="#000" opacity="1">0.0</text><text text-anchor="end" transform="translate(-7,353)" font-family="sans-serif" font-size="10px" fill="#000" opacity="1">0.1</text><text text-anchor="end" transform="translate(-7,303)" font-family="sans-serif" font-size="10px" fill="#000" opacity="1">0.2</text><text text-anchor="end" transform="translate(-7,253)" font-family="sans-serif" font-size="10px" fill="#000" opacity="1">0.3</text><text text-anchor="end" transform="translate(-7,203)" font-family="sans-serif" font-size="10px" fill="#000" opacity="1">0.4</text><text text-anchor="end" transform="translate(-7,153)" font-family="sans-serif" font-size="10px" fill="#000" opacity="1">0.5</text><text text-anchor="end" transform="translate(-7,103.00000000000004)" font-family="sans-serif" font-size="10px" fill="#000" opacity="1">0.6</text><text text-anchor="end" transform="translate(-7,53.00000000000004)" font-family="sans-serif" font-size="10px" fill="#000" opacity="1">0.7</text><text text-anchor="end" transform="translate(-7,3)" font-family="sans-serif" font-size="10px" fill="#000" opacity="1">0.8</text></g><g class="mark-rule role-axis-domain" pointer-events="none"><line transform="translate(0,400)" x2="0" y2="-400" stroke="#888" stroke-width="1" opacity="1"/></g><g class="mark-text role-axis-title" pointer-events="none"><text text-anchor="middle" transform="translate(-24.9013671875,200) rotate(-90) translate(0,-2)" font-family="sans-serif" font-size="11px" font-weight="bold" fill="#000" opacity="1">F1 Score</text></g></g><path class="foreground" aria-hidden="true" d="" pointer-events="none" display="none"/></g></g><g class="mark-symbol role-mark layer_0_layer_0_marks" role="graphics-symbol" aria-roledescription="symbol mark container"/><g class="mark-rule role-mark layer_0_layer_1_layer_0_marks" aria-hidden="true"><line transform="translate(128.57142857142856,209.99816655813444)" x2="0" y2="0" stroke="black"/><line transform="translate(557.1428571428571,400)" x2="0" y2="-37.02865109637821" stroke="black"/><line transform="translate(385.71428571428567,400)" x2="0" y2="-98.11982400066705" stroke="black"/><line transform="translate(214.28571428571428,130.3108045916459)" x2="0" y2="-24.191332011252925" stroke="black"/><line transform="translate(42.857142857142854,75.89295089212067)" x2="0" y2="0" stroke="black"/><line transform="translate(471.4285714285714,18.18678756685559)" x2="0" y2="0" stroke="black"/><line transform="translate(299.99999999999994,335.7017538583078)" x2="0" y2="0" stroke="black"/></g><g class="mark-rule role-mark layer_0_layer_1_layer_1_marks" aria-hidden="true"><line transform="translate(128.57142857142856,209.99816655813444)" x2="0" y2="0" stroke="black"/><line transform="translate(557.1428571428571,288.91404671086536)" x2="0" y2="-37.02865109637824" stroke="black"/><line transform="translate(385.71428571428567,105.64052799799883)" x2="0" y2="-98.11982400066705" stroke="black"/><line transform="translate(214.28571428571428,57.73680855788719)" x2="0" y2="-24.191332011252875" stroke="black"/><line transform="translate(42.857142857142854,75.89295089212067)" x2="0" y2="0" stroke="black"/><line transform="translate(471.4285714285714,18.18678756685559)" x2="0" y2="0" stroke="black"/><line transform="translate(299.99999999999994,335.7017538583078)" x2="0" y2="0" stroke="black"/></g><g class="mark-rect role-mark layer_1_layer_0_marks" role="graphics-object" aria-roledescription="rect mark container"><path aria-label="Number of Epochs: 6; F1 Score: 0.380003666884; upper_box_f1: 0.380003666884; Max of F1 Score: 0.380003666884; Q3 of F1 Score: 0.380003666884; Median of F1 Score: 0.380003666884; Q1 of F1 Score: 0.380003666884; Min of F1 Score: 0.380003666884" role="graphics-symbol" aria-roledescription="box" d="M121.57142857142856,209.99816655813444h14v0h-14Z" fill="#4c78a8"/><path aria-label="Number of Epochs: 12; F1 Score: 0.0740573021928; upper_box_f1: 0.222171906578; Max of F1 Score: 0.296229208771; Q3 of F1 Score: 0.222171906578; Median of F1 Score: 0.148114604386; Q1 of F1 Score: 0.0740573021928; Min of F1 Score: 0" role="graphics-symbol" aria-roledescription="box" d="M550.1428571428571,288.91404671086536h14v74.05730219275642h-14Z" fill="#4c78a8"/><path aria-label="Number of Epochs: 9; F1 Score: 0.196239648001; upper_box_f1: 0.588718944004; Max of F1 Score: 0.784958592005; Q3 of F1 Score: 0.588718944004; Median of F1 Score: 0.392479296003; Q1 of F1 Score: 0.196239648001; Min of F1 Score: 0" role="graphics-symbol" aria-roledescription="box" d="M378.71428571428567,105.64052799799883h14v196.2396480013341h-14Z" fill="#4c78a8"/><path aria-label="Number of Epochs: 7; F1 Score: 0.587761054839; upper_box_f1: 0.684526382884; Max of F1 Score: 0.732909046907; Q3 of F1 Score: 0.684526382884; Median of F1 Score: 0.636143718862; Q1 of F1 Score: 0.587761054839; Min of F1 Score: 0.539378390817" role="graphics-symbol" aria-roledescription="box" d="M207.28571428571428,57.73680855788719h14v48.38266402250579h-14Z" fill="#4c78a8"/><path aria-label="Number of Epochs: 5; F1 Score: 0.648214098216; upper_box_f1: 0.648214098216; Max of F1 Score: 0.648214098216; Q3 of F1 Score: 0.648214098216; Median of F1 Score: 0.648214098216; Q1 of F1 Score: 0.648214098216; Min of F1 Score: 0.648214098216" role="graphics-symbol" aria-roledescription="box" d="M35.857142857142854,75.89295089212067h14v0h-14Z" fill="#4c78a8"/><path aria-label="Number of Epochs: 11; F1 Score: 0.763626424866; upper_box_f1: 0.763626424866; Max of F1 Score: 0.763626424866; Q3 of F1 Score: 0.763626424866; Median of F1 Score: 0.763626424866; Q1 of F1 Score: 0.763626424866; Min of F1 Score: 0.763626424866" role="graphics-symbol" aria-roledescription="box" d="M464.4285714285714,18.18678756685559h14v0h-14Z" fill="#4c78a8"/><path aria-label="Number of Epochs: 8; F1 Score: 0.128596492283; upper_box_f1: 0.128596492283; Max of F1 Score: 0.128596492283; Q3 of F1 Score: 0.128596492283; Median of F1 Score: 0.128596492283; Q1 of F1 Score: 0.128596492283; Min of F1 Score: 0.128596492283" role="graphics-symbol" aria-roledescription="box" d="M292.99999999999994,335.7017538583078h14v0h-14Z" fill="#4c78a8"/></g><g class="mark-rect role-mark layer_1_layer_1_marks" aria-hidden="true"><path d="M121.57142857142856,209.49816655813444h14v1h-14Z" fill="#4c78a8" opacity="0.7"/><path d="M550.1428571428571,325.4426978072436h14v1h-14Z" fill="white" opacity="0.7"/><path d="M378.71428571428567,203.2603519986659h14v1h-14Z" fill="white" opacity="0.7"/><path d="M207.28571428571428,81.42814056914011h14v1h-14Z" fill="white" opacity="0.7"/><path d="M35.857142857142854,75.39295089212067h14v1h-14Z" fill="#4c78a8" opacity="0.7"/><path d="M464.4285714285714,17.68678756685559h14v1h-14Z" fill="#4c78a8" opacity="0.7"/><path d="M292.99999999999994,335.2017538583078h14v1h-14Z" fill="#4c78a8" opacity="0.7"/></g><g class="mark-group role-title"><g transform="translate(300,-22)"><path class="background" aria-hidden="true" d="M0,0h0v0h0Z" pointer-events="none"/><g><g class="mark-text role-title-text" role="graphics-symbol" aria-roledescription="title" aria-label="Title text 'Number of Epochs vs F1 Score'" pointer-events="none"><text text-anchor="middle" transform="translate(0,10)" font-family="sans-serif" font-size="13px" font-weight="bold" fill="#000" opacity="1">Number of Epochs vs F1 Score</text></g></g><path class="foreground" aria-hidden="true" d="" pointer-events="none" display="none"/></g></g></g><path class="foreground" aria-hidden="true" d="" display="none"/></g></g></g></svg>